<svg width="1080" height="278" viewBox="0 0 1080 278" fill="none" xmlns="http://www.w3.org/2000/svg">
<path d="M18.4235 109.162H124.567V138.969L84.6492 142.038C20.167 146.85 0 163.965 0 211.745V221.394C0 256.482 24.5647 277.524 62.2964 277.524C92.1175 277.524 109.24 270.501 130.292 249.017H133.805V271.801H176.35V62.7083H18.4235V109.188V109.162ZM124.567 210.002C111.4 223.163 91.6751 231.928 75.4374 231.928C57.8987 231.928 50.4304 225.348 50.8728 210.886C51.3152 190.729 58.7574 185.891 92.5338 182.822L124.567 179.753V210.002Z" fill="#FF8800"/>
<path d="M1015.45 146.878L983.862 143.808C966.323 142.066 961.925 137.67 961.925 123.651C961.925 107.863 968.066 103.909 992.631 103.909C1014.57 103.909 1020.71 107.421 1023.78 122.324H1072.91C1071.58 72.3334 1056.23 59.6406 995.259 59.6406C928.591 59.6406 911.911 72.3594 911.911 123.651C911.911 170.573 924.194 183.265 973.765 188.103L999.657 190.73C1022.89 192.915 1028.62 197.311 1028.62 211.33C1028.62 228.418 1021.59 232.814 993.1 232.814C968.093 232.814 961.509 228.861 960.208 212.656H910.636C911.963 264.39 927.733 277.551 990.914 277.551C1061.09 277.551 1078.63 263.506 1078.63 206.518C1078.63 163.992 1065.91 151.715 1015.48 146.904L1015.45 146.878Z" fill="#054ADA"/>
<path d="M752.267 150.831C752.267 83.3095 729.029 59.6406 662.335 59.6406C595.641 59.6406 570.66 90.3322 570.66 166.619C570.66 249.929 593.481 277.551 667.149 277.551C720.234 277.551 742.586 261.321 750.055 215.726H699.624C693.926 229.771 687.784 232.814 666.29 232.814C633.841 232.814 625.488 223.607 623.745 184.592H748.754C750.939 173.2 752.267 159.596 752.267 150.831ZM624.187 143.366C624.629 114.001 636.469 103.025 664.547 103.025C692.624 103.025 702.279 113.975 703.137 143.366H624.187Z" fill="#054ADA"/>
<path d="M349.162 62.7097H267.141V0H214.941V271.829H267.141V109.605H341.693V271.829H393.893V105.236H349.162V62.7097Z" fill="#054ADA"/>
<path d="M781.649 71.8942V271.832H833.849V107.424H896.562V62.7128H833.849V57.0166C834.291 44.74 837.362 41.2286 847.432 41.2286H904.446V0.0290527H843.035C801.374 0.0290527 781.623 12.7479 781.623 71.9202L781.649 71.8942Z" fill="#054ADA"/>
<path d="M432.513 271.827H484.687V111.789H562.336V62.7083H432.513V271.827Z" fill="#054ADA"/>
</svg>
