<?xml version="1.0" encoding="UTF-8" standalone="no"?>
<svg
   width="620"
   height="216.81729"
   viewBox="0 0 620 216.81734"
   fill="none"
   version="1.1"
   id="svg5"
   sodipodi:docname="dialo.svg"
   inkscape:version="1.4.2 (ebf0e940d0, 2025-05-08)"
   xmlns:inkscape="http://www.inkscape.org/namespaces/inkscape"
   xmlns:sodipodi="http://sodipodi.sourceforge.net/DTD/sodipodi-0.dtd"
   xmlns="http://www.w3.org/2000/svg"
   xmlns:svg="http://www.w3.org/2000/svg">
  <defs
     id="defs5" />
  <sodipodi:namedview
     id="namedview5"
     pagecolor="#ffffff"
     bordercolor="#000000"
     borderopacity="0.25"
     inkscape:showpageshadow="2"
     inkscape:pageopacity="0.0"
     inkscape:pagecheckerboard="0"
     inkscape:deskcolor="#d1d1d1"
     inkscape:zoom="7.1493124"
     inkscape:cx="254.5"
     inkscape:cy="88.959604"
     inkscape:window-width="3768"
     inkscape:window-height="2091"
     inkscape:window-x="0"
     inkscape:window-y="32"
     inkscape:window-maximized="1"
     inkscape:current-layer="svg5" />
  <g
     id="g5"
     transform="translate(55.54,19.408646)">
    <path
       d="m 448.435,178 c -12.443,0 -23.196,-2.688 -32.259,-8.065 -9.064,-5.376 -16.053,-13.018 -20.969,-22.927 -4.838,-9.908 -7.258,-21.621 -7.258,-35.139 0,-13.2105 2.42,-24.6931 7.258,-34.4476 4.916,-9.8313 11.905,-17.3583 20.969,-22.5812 9.063,-5.2997 19.816,-7.9495 32.259,-7.9495 12.365,0 23.118,2.6498 32.258,7.9495 9.14,5.2229 16.13,12.7499 20.969,22.5812 4.839,9.7545 7.258,21.2371 7.258,34.4476 0,13.518 -2.419,25.231 -7.258,35.139 -4.839,9.909 -11.829,17.551 -20.969,22.927 -9.14,5.377 -19.893,8.065 -32.258,8.065 z m -0.116,-27.65 c 5.223,0 9.716,-1.537 13.48,-4.609 3.763,-3.149 6.644,-7.604 8.641,-13.364 1.997,-5.761 2.995,-12.597 2.995,-20.508 0,-7.604 -0.998,-14.209 -2.995,-19.8159 -1.997,-5.6069 -4.878,-9.9465 -8.641,-13.0187 -3.764,-3.0723 -8.257,-4.6085 -13.48,-4.6085 -5.146,0 -9.601,1.5362 -13.364,4.6085 -3.764,3.0722 -6.644,7.4118 -8.641,13.0187 -1.92,5.6069 -2.88,12.2119 -2.88,19.8159 0,7.911 0.96,14.747 2.88,20.508 1.997,5.76 4.877,10.215 8.641,13.364 3.763,3.072 8.218,4.609 13.364,4.609 z"
       fill="#19160e"
       id="path1" />
    <path
       d="M 373.423,6.56717 V 148.852 l 1.844,26.844 h -31.914 l -4.147,-31.683 V 6.56717 Z"
       fill="#19160e"
       id="path2" />
    <path
       d="m 249.678,178 c -7.988,0 -15.016,-1.498 -21.083,-4.493 -5.991,-2.996 -10.638,-7.22 -13.941,-12.673 -3.302,-5.454 -4.954,-11.829 -4.954,-19.125 0,-11.829 3.841,-21.045 11.521,-27.651 7.758,-6.605 19.317,-11.021 34.679,-13.249 l 19.47,-2.8802 c 2.611,-0.384 4.762,-0.96 6.452,-1.7281 1.69,-0.7681 2.919,-1.805 3.687,-3.1107 0.844,-1.3825 1.267,-3.1491 1.267,-5.2997 0,-3.3027 -0.768,-6.1829 -2.304,-8.6407 -1.536,-2.5347 -3.802,-4.4548 -6.798,-5.7605 -2.995,-1.3058 -6.528,-1.9586 -10.599,-1.9586 -4.455,0 -8.257,0.8065 -11.406,2.4194 -3.149,1.5361 -5.645,3.6867 -7.489,6.4518 -1.843,2.6882 -3.072,5.7605 -3.686,9.2168 l -33.181,-4.6084 c 1.536,-7.2967 4.57,-13.7869 9.102,-19.4706 4.531,-5.7605 10.714,-10.2921 18.549,-13.5948 7.911,-3.3027 17.243,-4.954 27.996,-4.954 11.598,0 21.429,1.9202 29.494,5.7605 8.141,3.8403 14.247,9.332 18.318,16.4751 4.148,7.143 6.221,15.6302 6.221,25.4614 V 175.696 H 287.352 V 155.073 H 286.2 c -1.459,4.225 -3.84,8.103 -7.143,11.636 -3.226,3.457 -7.374,6.222 -12.443,8.296 -4.992,1.997 -10.638,2.995 -16.936,2.995 z m 12.212,-25.692 c 5.607,0 10.254,-1.267 13.941,-3.802 3.687,-2.534 6.413,-6.029 8.18,-10.484 1.843,-4.532 2.765,-9.831 2.765,-15.899 v -4.032 l -23.618,4.723 c -6.145,1.229 -10.561,3.149 -13.249,5.761 -2.689,2.611 -4.033,5.914 -4.033,9.908 0,2.765 0.653,5.223 1.959,7.373 1.306,2.074 3.187,3.687 5.645,4.839 2.458,1.075 5.261,1.613 8.41,1.613 z"
       fill="#19160e"
       id="path3" />
    <path
       d="m 161.994,49.0796 h 34.103 V 175.696 H 161.994 Z M 197.018,0 V 30.6459 H 160.497 V 0 Z"
       fill="#19160e"
       id="path4" />
    <path
       d="m 0,6.56717 h 63.9417 c 17.1279,0 32.0669,3.45633 44.8173,10.36893 12.749,6.8358 22.542,16.6287 29.378,29.3786 6.913,12.6732 10.369,27.6121 10.369,44.8168 0,17.2045 -3.456,32.1825 -10.369,44.9325 -6.836,12.673 -16.629,22.466 -29.378,29.378 -12.7504,6.836 -27.6894,10.254 -44.8173,10.254 H 0 Z M 63.02,146.317 c 9.6009,0 17.896,-2.15 24.8854,-6.452 6.9895,-4.378 12.3656,-10.714 16.1296,-19.009 3.84,-8.295 5.76,-18.203 5.76,-29.7245 0,-11.521 -1.92,-21.4291 -5.76,-29.7242 C 100.271,53.1121 94.8949,46.814 87.9054,42.5128 80.916,38.1348 72.6209,35.9458 63.02,35.9458 H 36.6369 V 146.317 Z"
       fill="#19160e"
       id="path5" />
  </g>
</svg>
