<svg width="253" height="64" viewBox="0 0 253 64" fill="none" xmlns="http://www.w3.org/2000/svg">
<path d="M24.3842 36.0178C24.2911 35.6455 24.4772 35.1802 24.2911 34.8079C24.198 34.4356 23.9188 34.4356 23.8257 34.1564C23.4535 33.4118 22.9881 32.5742 22.9881 31.6435C22.9881 30.899 22.7089 30.1544 22.6158 29.4099C22.6158 29.0376 22.6158 28.6653 22.6158 28.293C22.6158 28.1069 22.6158 27.9207 22.5228 27.7346C22.5228 27.6415 22.5228 27.4554 22.4297 27.4554L22.5228 27.1762C22.5228 27.0831 23.3604 27.0831 23.6396 27.0831C24.1049 27.0831 24.4772 27.0831 24.9426 27.1762C25.8733 27.1762 26.6178 27.1762 27.5485 27.0831C29.503 26.8039 30.3406 25.9663 30.8059 25.6871C32.5743 24.4772 33.4119 22.3366 33.4119 22.3366C33.6911 21.6851 33.6911 20.4752 34.3426 20.0099C35.0871 19.3584 36.297 19.4514 37.1347 19.0792C37.6 18.893 37.9723 18.7069 38.5307 18.8C38.903 18.893 39.5545 19.3584 39.7406 18.7069C39.6475 18.6138 39.5545 18.5207 39.4614 18.4277C40.2059 18.3346 39.4614 16.7524 39.1822 16.3802C38.7168 15.9148 38.0653 15.6356 37.3208 15.4495C36.3901 15.1703 35.5525 14.891 34.7149 15.0772C33.2257 15.3564 33.3188 14.5188 32.4812 14.5188C31.4574 14.5188 29.596 14.6118 29.2238 15.6356C29.0376 16.1009 28.9446 16.1009 28.6653 16.4732C28.4792 16.7524 28.6653 17.0316 28.5723 17.4039C28.4792 17.7762 28.2931 19.0792 28.1069 19.5445C27.8277 20.2891 27.4554 21.2198 26.804 21.2198C25.8733 21.3128 25.1287 21.4059 24.3842 21.1267C23.9188 20.9405 23.1743 20.6613 22.802 20.5683C21.0337 19.8237 20.7545 19.0792 20.7545 19.0792C20.5683 18.8 20.103 18.2415 19.9168 17.5901C19.7307 16.8455 19.3584 16.2871 19.2653 15.9148C19.0792 15.5425 18.8 14.891 18.5208 14.2396C18.1485 13.4019 17.6832 12.7504 17.3109 12.4712C16.7525 12.0059 16.2871 11.2613 15.1703 11.4475C14.9842 11.4475 14.2396 11.5405 13.6812 12.0059C13.3089 12.2851 13.2158 12.9366 12.8436 13.495C12.6574 13.7742 12.2851 14.7049 12.0059 15.4495C11.8198 16.0079 11.7267 16.3802 11.4475 16.5663C11.2614 16.7524 11.0752 16.9386 10.796 16.8455C10.6099 16.7524 10.4238 16.6594 10.2376 16.5663C9.95842 16.3802 9.4 15.3564 9.02772 14.7049C8.74851 14.0534 8.09703 13.1227 7.72475 12.6574C7.16634 11.9128 6.88713 11.7267 6.0495 11.7267C4.37426 11.7267 4.18812 12.6574 3.44356 14.0534C3.07129 14.7049 2.97822 15.6356 2.32673 16.3802C2.04752 16.7524 0.837624 18.5207 0 18.8V31.6435V31.5505C0.0930693 31.3643 0.0930693 31.1782 0.186139 31.0851C0.558416 30.4336 1.30297 29.7821 1.67525 29.0376C1.86139 28.6653 2.14059 28.293 2.32673 27.8277C2.4198 27.5485 2.51287 26.9901 2.69901 26.7108C2.88515 26.3386 3.25743 26.2455 3.6297 26.1524C4.28119 26.0594 4.74653 26.9901 5.49109 27.3623C5.7703 27.5485 7.25941 28.0138 7.72475 28.1069C8.46931 28.293 9.21386 28.3861 9.95842 28.5722C10.3307 28.6653 10.703 28.6653 11.1683 28.7584C11.5406 28.7584 12.9366 28.8514 12.9366 28.9445C12.2851 29.3168 11.8198 30.2475 11.5406 30.992C11.2614 31.7366 11.0752 32.5742 10.796 33.2257C10.4238 33.9703 9.67921 34.3425 9.77228 35.2732C9.77228 35.6455 9.86535 36.0178 9.77228 36.3901C9.67921 36.8554 9.49307 37.1346 9.4 37.6C9.21386 38.1584 9.02772 39.9267 8.84158 40.392L10.3307 40.2059C10.5168 39.8336 10.6099 38.1584 10.703 37.9722C10.9822 37.1346 11.3545 36.4831 11.9129 35.8316C12.4713 35.1802 12.4713 34.4356 12.7505 33.691C13.1228 32.8534 13.5881 32.295 14.0535 31.5505C14.8911 30.2475 15.4495 28.4792 17.1248 28.1069C17.3109 28.1069 18.3347 28.8514 18.8 29.3168C19.3584 29.8752 19.9168 30.4336 20.2891 31.1782C20.9406 32.5742 21.5921 34.6217 21.7782 35.6455C21.8713 36.297 21.9644 36.297 22.4297 36.8554C22.6158 37.0415 22.9881 37.7861 23.1743 38.0653C23.2673 38.3445 23.5465 38.996 23.6396 39.3683C23.7327 39.5544 24.0119 40.2059 24.198 40.7643H25.5941C25.0356 39.1821 24.5703 37.6 24.3842 36.0178Z" fill="white"/>
<path d="M23.6398 39.2753C23.4537 38.903 23.2675 38.2515 23.1745 37.9723C23.0814 37.6931 22.6161 36.9486 22.4299 36.7624C21.9646 36.2971 21.8715 36.204 21.7784 35.5525C21.5923 34.4357 20.9408 32.3882 20.2893 31.0852C19.917 30.3407 19.3586 29.7822 18.8002 29.2238C18.3349 28.7585 17.3111 28.0139 17.125 28.0139C15.3566 28.3862 14.8913 30.0614 14.0537 31.4575C13.5883 32.202 13.123 32.8535 12.7507 33.5981C12.3784 34.3426 12.4715 35.1803 11.9131 35.7387C11.3547 36.3902 10.9824 37.0416 10.7032 37.8793C10.6101 38.0654 10.517 39.7407 10.3309 40.1129L12.9368 39.9268C15.3566 40.1129 14.6121 41.0436 18.4279 40.8575L24.3844 40.6713C24.0121 40.1129 23.7329 39.4614 23.6398 39.2753Z" fill="#D54000"/>
<path d="M40.9505 0H5.86337C2.60594 0 0 2.69901 0 5.95644V18.8931C0.837624 18.5208 2.04752 16.7525 2.4198 16.2871C3.07129 15.5426 3.16436 14.5188 3.53663 13.9604C4.28119 12.5644 4.46733 11.6337 6.14257 11.6337C6.9802 11.6337 7.25941 11.8198 7.81782 12.5644C8.1901 13.0297 8.84158 13.9604 9.12079 14.5188C9.49307 15.2634 10.0515 16.1941 10.3307 16.3802C10.5168 16.5663 10.703 16.6594 10.8891 16.6594C11.1683 16.7525 11.3545 16.5663 11.5406 16.3802C11.8198 16.1941 11.9129 15.8218 12.099 15.2634C12.3782 14.5188 12.7505 13.5881 12.9366 13.3089C13.3089 12.7505 13.402 12.099 13.7743 11.8198C14.3327 11.3545 14.9842 11.3545 15.2634 11.2614C16.3802 11.0752 16.8455 11.8198 17.404 12.2851C17.7762 12.5644 18.2416 13.2158 18.6139 14.0535C18.8931 14.705 19.2653 15.3564 19.3584 15.7287C19.4515 16.101 19.8238 16.6594 20.0099 17.404C20.196 18.0554 20.6614 18.5208 20.8475 18.8931C20.8475 18.8931 21.1267 19.7307 22.8951 20.3822C23.2673 20.5683 24.0119 20.7545 24.4772 20.9406C25.2218 21.2198 25.9663 21.2198 26.897 21.0337C27.5485 21.0337 27.9208 20.103 28.2 19.3584C28.3861 18.8931 28.5723 17.5901 28.6653 17.2178C28.7584 16.8455 28.4792 16.5663 28.7584 16.2871C29.0376 15.9149 29.1307 15.9149 29.3168 15.4495C29.596 14.4257 31.5505 14.3327 32.5743 14.3327C33.4119 14.3327 33.3188 15.1703 34.8079 14.8911C35.6455 14.705 36.4832 14.9842 37.4139 15.2634C38.1584 15.4495 38.903 15.7287 39.2752 16.1941C39.5545 16.4733 40.2059 18.1485 39.5545 18.2416C39.6475 18.3347 39.6475 18.4277 39.8337 18.5208C39.6475 19.1723 38.996 18.7069 38.6238 18.6139C38.1584 18.5208 37.7861 18.6139 37.2277 18.8931C36.3901 19.2653 35.0871 19.2653 34.4356 19.8238C33.7842 20.3822 33.7842 21.499 33.5049 22.1505C33.5049 22.1505 32.6673 24.2911 30.899 25.501C30.4337 25.8733 29.596 26.6178 27.6416 26.897C26.804 26.9901 25.9663 27.0832 25.0356 26.9901C24.5703 26.9901 24.198 26.9901 23.7327 26.897C23.4535 26.897 22.6158 26.897 22.6158 26.9901L22.5228 27.2693C22.5228 27.3624 22.5228 27.5485 22.6158 27.5485C22.6158 27.7347 22.6158 27.9208 22.7089 28.1069C22.7089 28.4792 22.7089 28.8515 22.7089 29.2238C22.7089 29.9683 22.9881 30.7129 23.0812 31.4574C23.0812 32.2951 23.5465 33.2257 23.9188 33.9703C24.1049 34.2495 24.2911 34.2495 24.3842 34.6218C24.4772 34.9941 24.3842 35.3663 24.4772 35.8317C24.6634 37.4139 25.1287 38.996 25.8733 40.4851C26.7109 40.299 27.6416 40.0198 28.7584 39.8337C30.8059 39.5545 33.6911 39.6475 35.5525 39.5545C40.2059 39.0891 42.8119 41.5089 47 40.4851V5.95644C46.9069 2.69901 44.301 0 40.9505 0Z" fill="#D54000"/>
<path d="M10.796 33.2258C11.1683 32.4812 11.3545 31.7367 11.5406 30.9921C11.8198 30.2475 12.1921 29.3169 12.9366 28.9446C12.8436 28.8515 11.4475 28.7584 11.1683 28.7584C10.796 28.7584 10.4238 28.6654 9.95842 28.5723C9.21386 28.3862 8.37624 28.2931 7.72475 28.107C7.25941 28.0139 5.86337 27.4555 5.49109 27.3624C4.74653 26.9901 4.28119 26.0594 3.6297 26.1525C3.25743 26.2456 2.88515 26.3386 2.69901 26.7109C2.51287 26.9901 2.4198 27.5485 2.32673 27.9208C2.14059 28.2931 1.95446 28.7584 1.67525 29.1307C1.2099 29.8753 0.465347 30.5268 0.186139 31.1782C0.0930693 31.3644 0.0930693 31.4574 0 31.6436V39.6475C0.372277 39.7406 0.744554 39.8337 1.2099 39.9268C4.46733 40.7644 5.30495 40.8575 8.56238 40.4852H8.84158C9.12079 39.9268 9.30693 38.2515 9.4 37.6931C9.49307 37.3208 9.67921 36.9485 9.77228 36.4832C9.86535 36.1109 9.77228 35.7386 9.77228 35.3664C9.67921 34.3426 10.4238 33.9703 10.796 33.2258Z" fill="#D54000"/>
<path d="M62.58 20.2499H74.05V22.2339H62.58V20.2499ZM62.828 31.4409H60.534V9.74092H75.414V11.7249H62.828V31.4409ZM88.8932 31.6269C86.1239 31.6269 83.9435 30.8313 82.3522 29.2399C80.7609 27.6486 79.9652 25.2926 79.9652 22.1719V9.74092H82.2592V22.0789C82.2592 24.6416 82.8379 26.5326 83.9952 27.7519C85.1525 28.9713 86.7852 29.5809 88.8932 29.5809C91.0219 29.5809 92.6649 28.9713 93.8222 27.7519C94.9795 26.5326 95.5582 24.6416 95.5582 22.0789V9.74092H97.7902V22.1719C97.7902 25.2926 96.9945 27.6486 95.4032 29.2399C93.8325 30.8313 91.6625 31.6269 88.8932 31.6269ZM104.703 31.4409V9.74092H106.594L121.567 28.5889H120.575V9.74092H122.838V31.4409H120.947L106.005 12.5929H106.997V31.4409H104.703Z" fill="white"/>
<path d="M137.29 32.6435C135.742 32.6435 134.376 32.3703 133.101 31.8239C131.826 31.2775 130.734 30.4579 129.823 29.4563C128.912 28.4546 128.184 27.1797 127.729 25.7227C127.273 24.2656 127 22.6265 127 20.7142C127 18.8929 127.273 17.2538 127.729 15.7968C128.184 14.3398 128.912 13.1559 129.823 12.1542C130.734 11.1525 131.826 10.424 133.101 9.87766C134.376 9.33128 135.742 9.05809 137.29 9.05809C138.838 9.05809 140.204 9.33128 141.479 9.87766C142.754 10.424 143.847 11.1525 144.757 12.1542C145.668 13.1559 146.396 14.3398 146.852 15.7968C147.307 17.2538 147.58 18.8929 147.58 20.7142C147.58 22.5354 147.307 24.1746 146.852 25.7227C146.396 27.1797 145.668 28.4546 144.757 29.4563C143.847 30.4579 142.754 31.2775 141.479 31.8239C140.204 32.3703 138.838 32.6435 137.29 32.6435ZM137.29 28.2724C138.838 28.2724 140.022 27.635 140.933 26.269C141.843 24.9031 142.299 23.1729 142.299 20.8052C142.299 18.5287 141.843 16.7985 140.933 15.5236C140.022 14.2487 138.838 13.6113 137.29 13.6113C135.742 13.6113 134.558 14.2487 133.648 15.5236C132.737 16.7985 132.282 18.5287 132.282 20.8052C132.282 23.0818 132.737 24.9031 133.648 26.269C134.467 27.635 135.742 28.2724 137.29 28.2724ZM149.31 21.0784C149.31 19.1661 149.584 17.527 150.221 16.07C150.768 14.6129 151.587 13.3381 152.589 12.3364C153.59 11.3347 154.774 10.5151 156.049 9.96872C157.324 9.42234 158.781 9.14915 160.238 9.14915C161.604 9.14915 162.97 9.42234 164.063 10.0598C165.247 10.6062 166.157 11.3347 166.886 12.1542L164.063 15.3415C163.516 14.7951 162.879 14.4308 162.333 14.0666C161.786 13.7934 161.058 13.6113 160.238 13.6113C159.419 13.6113 158.69 13.7934 158.053 14.1576C157.415 14.5219 156.778 14.9772 156.231 15.6146C155.685 16.2521 155.321 16.9806 155.047 17.8912C154.774 18.8019 154.592 19.8036 154.592 20.9874C154.592 23.355 155.047 25.1763 156.049 26.4512C157.051 27.7261 158.417 28.3635 160.056 28.3635C160.967 28.3635 161.786 28.1814 162.515 27.8171C163.243 27.4529 163.79 26.9975 164.427 26.3601L167.25 29.4563C166.339 30.549 165.247 31.3686 163.972 31.915C162.788 32.4613 161.422 32.7345 160.056 32.7345C158.599 32.7345 157.233 32.4613 155.958 32.006C154.683 31.5507 153.499 30.7311 152.589 29.8205C151.678 28.9099 150.859 27.635 150.312 26.178C149.584 24.6299 149.31 22.9908 149.31 21.0784ZM168.889 27.4529C168.889 25.6316 169.618 24.2656 171.166 23.264C172.714 22.2623 175.172 21.5338 178.542 21.2606C178.451 20.5321 178.269 19.8946 177.813 19.4393C177.358 18.984 176.721 18.8019 175.81 18.8019C175.081 18.8019 174.353 18.984 173.624 19.2572C172.896 19.5304 172.076 19.8946 171.257 20.441L169.435 17.0717C170.528 16.4342 171.712 15.8878 172.896 15.4325C174.08 14.9772 175.446 14.7951 176.721 14.7951C178.906 14.7951 180.636 15.4325 181.82 16.7074C183.004 17.9823 183.55 19.8946 183.55 22.6265L183.55 32.4613L179.543 32.4613L179.179 30.7311H179.088C178.36 31.3686 177.54 31.915 176.721 32.2792C175.901 32.6435 174.99 32.9167 173.989 32.9167C173.169 32.9167 172.532 32.8256 171.894 32.5524C171.257 32.2792 170.71 31.915 170.255 31.4596C169.8 31.0043 169.435 30.458 169.253 29.8205C168.98 28.9099 168.889 28.1814 168.889 27.4529ZM173.715 27.0886C173.715 27.635 173.898 28.0903 174.262 28.3635C174.626 28.6367 175.081 28.7277 175.719 28.7277C176.356 28.7277 176.812 28.6367 177.267 28.3635C177.722 28.0903 178.086 27.7261 178.542 27.2707V24.2657C176.721 24.5388 175.446 24.9031 174.717 25.3584C174.08 25.8137 173.715 26.4512 173.715 27.0886ZM186.646 15.0683L190.835 15.0683L191.2 17.2538H191.382C192.11 16.5253 192.839 15.8878 193.658 15.4325C194.478 14.8861 195.48 14.6129 196.572 14.6129C197.756 14.6129 198.758 14.8861 199.577 15.3415C200.306 15.7968 200.943 16.5253 201.399 17.4359C202.127 16.6163 202.947 15.9789 203.766 15.4325C204.586 14.8861 205.588 14.6129 206.771 14.6129C208.593 14.6129 209.959 15.2504 210.869 16.4342C211.78 17.7091 212.144 19.3482 212.144 21.5338L212.144 32.1882H207.045L207.045 22.1712C207.045 20.8963 206.862 20.0767 206.498 19.6214C206.134 19.1661 205.588 18.8929 204.859 18.8929C204.039 18.8929 203.038 19.4393 201.945 20.5321L201.945 32.1882L196.845 32.1882L196.845 22.1712C196.845 20.8963 196.663 20.0767 196.299 19.6214C195.935 19.1661 195.388 18.8929 194.66 18.8929C193.749 18.8929 192.839 19.4393 191.746 20.5321L191.746 32.1882L186.646 32.1882L186.646 15.0683ZM215.058 7.96533L220.158 7.96533L220.158 27.1797C220.158 27.7261 220.249 28.0903 220.431 28.2724C220.613 28.4546 220.795 28.5456 221.068 28.5456L221.341 28.5456C221.433 28.5456 221.524 28.5456 221.706 28.4546L222.343 32.2792C222.07 32.3703 221.706 32.4613 221.25 32.5524C220.795 32.6435 220.34 32.6435 219.702 32.6435C218.792 32.6435 218.063 32.4613 217.517 32.1882C216.879 31.915 216.424 31.5507 216.06 31.0043C215.696 30.549 215.422 29.9116 215.24 29.1831C215.058 28.5456 215.058 27.8171 215.058 26.9065L215.058 7.96533Z" fill="white"/>
<path d="M222.898 54.8818H215.445V53.8428L219.172 49.7021C219.505 49.3324 219.784 49.0042 220.008 48.7178C220.232 48.4313 220.411 48.1657 220.547 47.9209C220.682 47.6813 220.779 47.4548 220.836 47.2412C220.893 47.0225 220.922 46.7985 220.922 46.5693C220.922 46.2881 220.875 46.0251 220.781 45.7803C220.693 45.5303 220.562 45.3141 220.391 45.1318C220.214 44.9495 220 44.8063 219.75 44.7021C219.505 44.5928 219.227 44.5381 218.914 44.5381C218.534 44.5381 218.203 44.5928 217.922 44.7021C217.646 44.8115 217.417 44.9652 217.234 45.1631C217.047 45.3662 216.906 45.611 216.812 45.8975C216.724 46.1839 216.68 46.5042 216.68 46.8584H215.227C215.227 46.3792 215.31 45.9287 215.477 45.5068C215.643 45.0798 215.885 44.7074 216.203 44.3896C216.516 44.0719 216.898 43.8193 217.352 43.6318C217.81 43.4443 218.331 43.3506 218.914 43.3506C219.451 43.3506 219.932 43.4313 220.359 43.5928C220.792 43.749 221.156 43.9678 221.453 44.249C221.75 44.5303 221.977 44.8636 222.133 45.249C222.294 45.6344 222.375 46.0537 222.375 46.5068C222.375 46.8454 222.318 47.1813 222.203 47.5146C222.089 47.8428 221.935 48.1683 221.742 48.4912C221.544 48.8141 221.315 49.1344 221.055 49.4521C220.799 49.7646 220.529 50.0771 220.242 50.3896L217.188 53.7021H222.898V54.8818ZM232.672 50.5303C232.672 51.2542 232.589 51.8975 232.422 52.46C232.255 53.0173 232.016 53.486 231.703 53.8662C231.391 54.2516 231.008 54.5433 230.555 54.7412C230.102 54.9391 229.583 55.0381 229 55.0381C228.422 55.0381 227.904 54.9417 227.445 54.749C226.987 54.5511 226.599 54.2568 226.281 53.8662C225.964 53.486 225.721 53.0173 225.555 52.46C225.388 51.8975 225.305 51.2542 225.305 50.5303V47.8662C225.305 47.1423 225.388 46.5016 225.555 45.9443C225.721 45.3818 225.964 44.9079 226.281 44.5225C226.594 44.137 226.977 43.8454 227.43 43.6475C227.888 43.4443 228.406 43.3428 228.984 43.3428C229.568 43.3428 230.086 43.4443 230.539 43.6475C230.997 43.8454 231.385 44.137 231.703 44.5225C232.016 44.9079 232.255 45.3818 232.422 45.9443C232.589 46.5016 232.672 47.1423 232.672 47.8662V50.5303ZM226.758 50.2412L231.188 46.8428C231.146 46.4678 231.07 46.137 230.961 45.8506C230.857 45.5589 230.714 45.3167 230.531 45.124C230.354 44.9261 230.135 44.7777 229.875 44.6787C229.62 44.5798 229.323 44.5303 228.984 44.5303C228.641 44.5303 228.336 44.585 228.07 44.6943C227.81 44.7985 227.589 44.9521 227.406 45.1553C227.188 45.4105 227.023 45.7412 226.914 46.1475C226.81 46.5485 226.758 47.0146 226.758 47.5459V49.4521C226.758 49.5824 226.758 49.7126 226.758 49.8428C226.758 49.973 226.758 50.1058 226.758 50.2412ZM231.219 50.835V49.2256C231.219 49.1475 231.219 48.999 231.219 48.7803C231.219 48.5563 231.219 48.3714 231.219 48.2256L226.797 51.6084C226.844 51.9886 226.927 52.3245 227.047 52.6162C227.167 52.9027 227.323 53.1396 227.516 53.3271C227.693 53.5042 227.906 53.6396 228.156 53.7334C228.406 53.8219 228.688 53.8662 229 53.8662C229.328 53.8662 229.62 53.8167 229.875 53.7178C230.13 53.6188 230.346 53.4756 230.523 53.2881C230.763 53.0329 230.938 52.6995 231.047 52.2881C231.161 51.8766 231.219 51.3923 231.219 50.835ZM242.117 54.8818H234.664V53.8428L238.391 49.7021C238.724 49.3324 239.003 49.0042 239.227 48.7178C239.451 48.4313 239.63 48.1657 239.766 47.9209C239.901 47.6813 239.997 47.4548 240.055 47.2412C240.112 47.0225 240.141 46.7985 240.141 46.5693C240.141 46.2881 240.094 46.0251 240 45.7803C239.911 45.5303 239.781 45.3141 239.609 45.1318C239.432 44.9495 239.219 44.8063 238.969 44.7021C238.724 44.5928 238.445 44.5381 238.133 44.5381C237.753 44.5381 237.422 44.5928 237.141 44.7021C236.865 44.8115 236.635 44.9652 236.453 45.1631C236.266 45.3662 236.125 45.611 236.031 45.8975C235.943 46.1839 235.898 46.5042 235.898 46.8584H234.445C234.445 46.3792 234.529 45.9287 234.695 45.5068C234.862 45.0798 235.104 44.7074 235.422 44.3896C235.734 44.0719 236.117 43.8193 236.57 43.6318C237.029 43.4443 237.549 43.3506 238.133 43.3506C238.669 43.3506 239.151 43.4313 239.578 43.5928C240.01 43.749 240.375 43.9678 240.672 44.249C240.969 44.5303 241.195 44.8636 241.352 45.249C241.513 45.6344 241.594 46.0537 241.594 46.5068C241.594 46.8454 241.536 47.1813 241.422 47.5146C241.307 47.8428 241.154 48.1683 240.961 48.4912C240.763 48.8141 240.534 49.1344 240.273 49.4521C240.018 49.7646 239.747 50.0771 239.461 50.3896L236.406 53.7021H242.117V54.8818ZM245.266 49.1787L245.836 43.5068H251.672V44.9131H247.055L246.734 47.9443C246.958 47.8141 247.227 47.6995 247.539 47.6006C247.852 47.5016 248.214 47.4521 248.625 47.4521C249.151 47.4521 249.622 47.5433 250.039 47.7256C250.456 47.9079 250.81 48.1631 251.102 48.4912C251.393 48.8245 251.617 49.2256 251.773 49.6943C251.93 50.1631 252.008 50.6839 252.008 51.2568C252.008 51.7985 251.935 52.3011 251.789 52.7646C251.643 53.2282 251.424 53.6266 251.133 53.96C250.836 54.2985 250.464 54.5641 250.016 54.7568C249.568 54.9443 249.042 55.0381 248.438 55.0381C247.974 55.0381 247.536 54.973 247.125 54.8428C246.714 54.7126 246.349 54.5173 246.031 54.2568C245.708 53.9964 245.443 53.6683 245.234 53.2725C245.031 52.8766 244.904 52.4157 244.852 51.8896H246.227C246.315 52.5355 246.552 53.0251 246.938 53.3584C247.328 53.6917 247.828 53.8584 248.438 53.8584C248.781 53.8584 249.086 53.7985 249.352 53.6787C249.617 53.5537 249.841 53.3766 250.023 53.1475C250.201 52.9235 250.333 52.6527 250.422 52.335C250.516 52.0173 250.562 51.6631 250.562 51.2725C250.562 50.9183 250.51 50.5876 250.406 50.2803C250.307 49.973 250.161 49.7048 249.969 49.4756C249.776 49.2516 249.539 49.0745 249.258 48.9443C248.977 48.8141 248.654 48.749 248.289 48.749C248.049 48.749 247.841 48.7673 247.664 48.8037C247.492 48.835 247.336 48.8818 247.195 48.9443C247.055 49.0068 246.922 49.0824 246.797 49.1709C246.677 49.2594 246.552 49.361 246.422 49.4756L245.266 49.1787Z" fill="white"/>
</svg>
