<svg width="528" height="210" viewBox="0 0 528 210" fill="none" xmlns="http://www.w3.org/2000/svg">
<g filter="url(#filter0_d_1_17)">
<g clip-path="url(#clip0_1_17)">
<path d="M177.243 151V81.6667H154.108V151H130.973V47H154.108V70.1111H188.811V81.6667H200.378V151H177.243ZM235.081 93.2222V151H211.946V70.1111H235.081V81.6667H246.649V70.1111H269.784V93.2222H235.081ZM350.757 127.889V139.444H339.189V127.889H350.757ZM292.919 151V139.444H281.351V81.6667H292.919V70.1111H339.189V81.6667H350.757V116.333H304.487V139.444H339.189V151H292.919ZM327.622 104.778V81.6667H304.487V104.778H327.622ZM397.027 58.5556V70.1111H408.595V81.6667H397.027V151H373.892V81.6667H362.324V70.1111H373.892V58.5556H385.46V47H420.162V58.5556H397.027ZM454.865 93.2222V104.778H466.432V116.333H478V139.444H466.432V151H431.73V139.444H454.865V127.889H443.297V116.333H431.73V104.778H420.162V81.6667H431.73V70.1111H466.432V81.6667H443.297V93.2222H454.865ZM420.162 127.889H431.73V139.444H420.162V127.889ZM478 93.2222H466.432V81.6667H478V93.2222Z" fill="#054ADA"/>
<path fill-rule="evenodd" clip-rule="evenodd" d="M61.5676 151V139.444H50V116.333H61.5676V104.778H96.2703V81.6667H61.5676V70.1111H107.838V81.6667H119.405V151H61.5676ZM73.1351 116.333V139.444H96.2703V116.333H73.1351ZM50 93.2222V81.6667H61.5676V93.2222H50Z" fill="#FF8800"/>
</g>
</g>
<defs>
<filter id="filter0_d_1_17" x="-4" y="0" width="536" height="218" filterUnits="userSpaceOnUse" color-interpolation-filters="sRGB">
<feFlood flood-opacity="0" result="BackgroundImageFix"/>
<feColorMatrix in="SourceAlpha" type="matrix" values="0 0 0 0 0 0 0 0 0 0 0 0 0 0 0 0 0 0 127 0" result="hardAlpha"/>
<feOffset dy="4"/>
<feGaussianBlur stdDeviation="2"/>
<feComposite in2="hardAlpha" operator="out"/>
<feColorMatrix type="matrix" values="0 0 0 0 0 0 0 0 0 0 0 0 0 0 0 0 0 0 0.25 0"/>
<feBlend mode="normal" in2="BackgroundImageFix" result="effect1_dropShadow_1_17"/>
<feBlend mode="normal" in="SourceGraphic" in2="effect1_dropShadow_1_17" result="shape"/>
</filter>
<clipPath id="clip0_1_17">
<rect width="428" height="104" fill="white" transform="translate(50 47)"/>
</clipPath>
</defs>
</svg>
