<svg width="528" height="210" viewBox="0 0 528 210" fill="none" xmlns="http://www.w3.org/2000/svg">
<g filter="url(#filter0_d_1_17)">
<mask id="mask0_1_17" style="mask-type:luminance" maskUnits="userSpaceOnUse" x="27" y="44" width="474" height="121">
<path d="M27 44H500.427V165H27V44Z" fill="white"/>
</mask>
<g mask="url(#mask0_1_17)">
<path d="M35.0864 91.5947H81.6756V104.602L64.1546 105.94C35.863 108.038 27 115.489 27 136.332V140.539C27 155.826 37.7819 165 54.3437 165C67.4328 165 74.9025 161.938 84.1884 152.526H85.6844V162.471H104.359V71.2961H35.0864V91.5947ZM81.6756 135.561C75.9645 141.299 67.2384 145.121 60.1111 145.121C52.4129 145.121 49.1465 142.251 49.3292 135.946C49.5236 127.146 52.756 125.048 67.6037 123.71L81.6526 122.372L81.6756 135.561Z" fill="#FF8800"/>
<path d="M472.707 108.038L458.841 106.677C451.143 105.917 449.212 104.001 449.212 97.8885C449.212 91.005 451.908 89.2816 462.69 89.2816C472.319 89.2816 475.014 90.8123 476.396 97.3105H497.96C497.378 75.5146 490.639 69.9803 463.878 69.9803C434.616 69.9803 427.329 75.5146 427.329 97.8885C427.329 118.301 432.719 123.881 454.478 125.978L465.842 127.112C476.042 128.076 478.543 129.982 478.543 136.105C478.543 143.555 475.459 145.472 462.953 145.472C451.977 145.472 449.087 143.749 448.516 136.672H426.689C427.26 159.228 434.193 164.966 461.925 164.966C492.763 164.966 500.427 158.854 500.427 133.996C500.427 115.489 494.842 110.136 472.707 108.038Z" fill="#054ADA"/>
<path d="M357.188 109.762C357.188 80.2771 346.977 70.0033 317.715 70.0033C288.453 70.0033 277.476 83.3732 277.476 116.634C277.476 152.923 287.493 165 319.839 165C343.128 165 352.962 157.935 356.217 138.045H334.082C331.581 144.168 328.885 145.506 319.451 145.506C305.208 145.506 301.542 141.492 300.776 124.481H355.601C356.549 119.628 357.074 114.706 357.188 109.762ZM300.971 106.507C301.165 93.704 306.362 88.9186 318.674 88.9186C330.987 88.9186 335.236 93.704 335.624 106.507H300.971Z" fill="#054ADA"/>
<path d="M180.256 71.3413H144.255V44H121.343V162.517H144.255V91.7874H176.978V162.517H199.89V89.8825H180.256V71.3413Z" fill="#054ADA"/>
<path d="M370.083 75.3443V162.517H392.995V90.8012H420.521V71.3413H392.995V68.8461C393.189 63.4939 394.537 61.9744 398.969 61.9744H423.993V44H397.039C378.752 44 370.083 49.5454 370.083 75.3443Z" fill="#054ADA"/>
<path d="M216.828 162.517H239.74V92.7401H273.822V71.3413H216.828V162.517Z" fill="#054ADA"/>
</g>
</g>
<defs>
<filter id="filter0_d_1_17" x="-4" y="0" width="536" height="218" filterUnits="userSpaceOnUse" color-interpolation-filters="sRGB">
<feFlood flood-opacity="0" result="BackgroundImageFix"/>
<feColorMatrix in="SourceAlpha" type="matrix" values="0 0 0 0 0 0 0 0 0 0 0 0 0 0 0 0 0 0 127 0" result="hardAlpha"/>
<feOffset dy="4"/>
<feGaussianBlur stdDeviation="2"/>
<feComposite in2="hardAlpha" operator="out"/>
<feColorMatrix type="matrix" values="0 0 0 0 0 0 0 0 0 0 0 0 0 0 0 0 0 0 0.25 0"/>
<feBlend mode="normal" in2="BackgroundImageFix" result="effect1_dropShadow_1_17"/>
<feBlend mode="normal" in="SourceGraphic" in2="effect1_dropShadow_1_17" result="shape"/>
</filter>
</defs>
</svg>
