<svg fill="none" height="625" viewBox="0 0 1000 625" width="1000" xmlns="http://www.w3.org/2000/svg" xmlns:xlink="http://www.w3.org/1999/xlink"><clipPath id="a"><path d="m97 191h806v206h-806z"/></clipPath><path d="m0 0h1000v625h-1000z" fill="#fff"/><g clip-path="url(#a)"><path d="m110.767 272.029h79.317v22.145l-29.829 2.278c-48.166 3.572-63.255 16.256-63.255 51.741v7.163c0 26.025 18.356 41.644 46.552 41.644 22.284 0 35.001-5.213 50.81-21.237h2.547v16.932h31.793v-155.224h-117.935zm79.317 74.851c-9.723 9.77-24.579 16.276-36.713 16.276-13.106 0-18.667-4.885-18.356-15.619.331-14.982 5.834-18.554 31.112-20.832l23.918-2.278z" fill="#f80"/><g fill="#054ada"><path d="m855.807 300.024-23.607-2.317c-13.106-1.294-16.392-4.557-16.392-14.963 0-11.719 4.589-14.653 22.945-14.653 16.393 0 20.982 2.606 23.335 13.669h36.712c-.992-37.107-12.464-46.529-58.024-46.529-49.819 0-62.225 9.422-62.225 47.513 0 34.752 9.178 44.251 46.221 47.822l19.348 1.931c17.365 1.641 21.623 4.885 21.623 15.31 0 12.684-5.25 15.947-26.542 15.947-18.687 0-23.607-2.934-24.579-14.982h-37.16c.973 38.401 12.776 48.17 59.989 48.17 52.501 0 65.549-10.406 65.549-52.726 0-31.508-9.509-40.621-47.193-44.192z"/><path d="m659.139 302.958c0-50.197-17.384-67.688-67.202-67.688-49.819 0-68.506 22.762-68.506 79.388 0 61.781 17.054 82.342 72.122 82.342 39.649 0 56.391-12.028 61.933-45.891h-37.685c-4.258 10.425-8.847 12.703-24.909 12.703-24.248 0-30.49-6.834-31.793-35.794h93.337c1.614-8.263 2.508-16.642 2.703-25.06zm-95.709-5.541c.331-21.797 9.178-29.944 30.14-29.944s28.195 8.147 28.856 29.944z"/><path d="m357.915 237.548h-61.291v-46.548h-39.007v201.772h39.007v-120.415h55.71v120.415h39.007v-123.658h-33.426z"/><path d="m681.092 244.363v148.409h39.007v-122.094h46.863v-33.13h-46.863v-4.248c.331-9.112 2.625-11.699 10.17-11.699h42.604v-30.601h-45.89c-31.132 0-45.891 9.441-45.891 53.363z"/><path d="m420.178 392.772h39.007v-118.793h58.024v-36.431h-97.031z"/></g></g></svg>