<svg width="223" height="64" viewBox="0 0 223 64" fill="none" xmlns="http://www.w3.org/2000/svg">
<path d="M24.3842 36.0178C24.2911 35.6455 24.4772 35.1802 24.2911 34.8079C24.198 34.4356 23.9188 34.4356 23.8257 34.1564C23.4535 33.4118 22.9881 32.5742 22.9881 31.6435C22.9881 30.899 22.7089 30.1544 22.6158 29.4099C22.6158 29.0376 22.6158 28.6653 22.6158 28.293C22.6158 28.1069 22.6158 27.9207 22.5228 27.7346C22.5228 27.6415 22.5228 27.4554 22.4297 27.4554L22.5228 27.1762C22.5228 27.0831 23.3604 27.0831 23.6396 27.0831C24.1049 27.0831 24.4772 27.0831 24.9426 27.1762C25.8733 27.1762 26.6178 27.1762 27.5485 27.0831C29.503 26.8039 30.3406 25.9663 30.8059 25.6871C32.5743 24.4772 33.4119 22.3366 33.4119 22.3366C33.6911 21.6851 33.6911 20.4752 34.3426 20.0099C35.0871 19.3584 36.297 19.4514 37.1347 19.0792C37.6 18.893 37.9723 18.7069 38.5307 18.8C38.903 18.893 39.5545 19.3584 39.7406 18.7069C39.6475 18.6138 39.5545 18.5207 39.4614 18.4277C40.2059 18.3346 39.4614 16.7524 39.1822 16.3802C38.7168 15.9148 38.0653 15.6356 37.3208 15.4495C36.3901 15.1703 35.5525 14.891 34.7149 15.0772C33.2257 15.3564 33.3188 14.5188 32.4812 14.5188C31.4574 14.5188 29.596 14.6118 29.2238 15.6356C29.0376 16.1009 28.9446 16.1009 28.6653 16.4732C28.4792 16.7524 28.6653 17.0316 28.5723 17.4039C28.4792 17.7762 28.2931 19.0792 28.1069 19.5445C27.8277 20.2891 27.4554 21.2198 26.804 21.2198C25.8733 21.3128 25.1287 21.4059 24.3842 21.1267C23.9188 20.9405 23.1743 20.6613 22.802 20.5683C21.0337 19.8237 20.7545 19.0792 20.7545 19.0792C20.5683 18.8 20.103 18.2415 19.9168 17.5901C19.7307 16.8455 19.3584 16.2871 19.2653 15.9148C19.0792 15.5425 18.8 14.891 18.5208 14.2396C18.1485 13.4019 17.6832 12.7504 17.3109 12.4712C16.7525 12.0059 16.2871 11.2613 15.1703 11.4475C14.9842 11.4475 14.2396 11.5405 13.6812 12.0059C13.3089 12.2851 13.2158 12.9366 12.8436 13.495C12.6574 13.7742 12.2851 14.7049 12.0059 15.4495C11.8198 16.0079 11.7267 16.3802 11.4475 16.5663C11.2614 16.7524 11.0752 16.9386 10.796 16.8455C10.6099 16.7524 10.4238 16.6594 10.2376 16.5663C9.95842 16.3802 9.4 15.3564 9.02772 14.7049C8.74851 14.0534 8.09703 13.1227 7.72475 12.6574C7.16634 11.9128 6.88713 11.7267 6.0495 11.7267C4.37426 11.7267 4.18812 12.6574 3.44356 14.0534C3.07129 14.7049 2.97822 15.6356 2.32673 16.3802C2.04752 16.7524 0.837624 18.5207 0 18.8V31.6435V31.5505C0.0930693 31.3643 0.0930693 31.1782 0.186139 31.0851C0.558416 30.4336 1.30297 29.7821 1.67525 29.0376C1.86139 28.6653 2.14059 28.293 2.32673 27.8277C2.4198 27.5485 2.51287 26.9901 2.69901 26.7108C2.88515 26.3386 3.25743 26.2455 3.6297 26.1524C4.28119 26.0594 4.74653 26.9901 5.49109 27.3623C5.7703 27.5485 7.2594 28.0138 7.72475 28.1069C8.46931 28.293 9.21386 28.3861 9.95842 28.5722C10.3307 28.6653 10.703 28.6653 11.1683 28.7584C11.5406 28.7584 12.9366 28.8514 12.9366 28.9445C12.2851 29.3168 11.8198 30.2475 11.5406 30.992C11.2614 31.7366 11.0752 32.5742 10.796 33.2257C10.4238 33.9703 9.67921 34.3425 9.77228 35.2732C9.77228 35.6455 9.86535 36.0178 9.77228 36.3901C9.67921 36.8554 9.49307 37.1346 9.4 37.6C9.21386 38.1584 9.02772 39.9267 8.84158 40.392L10.3307 40.2059C10.5168 39.8336 10.6099 38.1584 10.703 37.9722C10.9822 37.1346 11.3545 36.4831 11.9129 35.8316C12.4713 35.1802 12.4713 34.4356 12.7505 33.691C13.1228 32.8534 13.5881 32.295 14.0535 31.5505C14.8911 30.2475 15.4495 28.4792 17.1248 28.1069C17.3109 28.1069 18.3347 28.8514 18.8 29.3168C19.3584 29.8752 19.9168 30.4336 20.2891 31.1782C20.9406 32.5742 21.5921 34.6217 21.7782 35.6455C21.8713 36.297 21.9644 36.297 22.4297 36.8554C22.6158 37.0415 22.9881 37.7861 23.1743 38.0653C23.2673 38.3445 23.5465 38.996 23.6396 39.3683C23.7327 39.5544 24.0119 40.2059 24.198 40.7643H25.5941C25.0356 39.1821 24.5703 37.6 24.3842 36.0178Z" fill="white"/>
<path d="M23.6398 39.2752C23.4537 38.9029 23.2676 38.2514 23.1745 37.9722C23.0814 37.693 22.6161 36.9484 22.4299 36.7623C21.9646 36.297 21.8715 36.2039 21.7785 35.5524C21.5923 34.4356 20.9408 32.3881 20.2893 31.0851C19.9171 30.3405 19.3587 29.7821 18.8002 29.2237C18.3349 28.7583 17.3111 28.0138 17.125 28.0138C15.3567 28.3861 14.8913 30.0613 14.0537 31.4574C13.5884 32.2019 13.123 32.8534 12.7507 33.598C12.3785 34.3425 12.4715 35.1801 11.9131 35.7385C11.3547 36.39 10.9824 37.0415 10.7032 37.8791C10.6101 38.0653 10.5171 39.7405 10.3309 40.1128L12.9369 39.9267C15.3567 40.1128 14.6121 41.0435 18.428 40.8574L24.3844 40.6712C24.0121 40.1128 23.7329 39.4613 23.6398 39.2752Z" fill="#D54000"/>
<path d="M40.9505 0H5.86337C2.60594 0 0 2.69901 0 5.95644V18.8931C0.837624 18.5208 2.04752 16.7525 2.4198 16.2871C3.07129 15.5426 3.16436 14.5188 3.53663 13.9604C4.28119 12.5644 4.46733 11.6337 6.14257 11.6337C6.9802 11.6337 7.25941 11.8198 7.81782 12.5644C8.1901 13.0297 8.84158 13.9604 9.12079 14.5188C9.49307 15.2634 10.0515 16.1941 10.3307 16.3802C10.5168 16.5663 10.703 16.6594 10.8891 16.6594C11.1683 16.7525 11.3545 16.5663 11.5406 16.3802C11.8198 16.1941 11.9129 15.8218 12.099 15.2634C12.3782 14.5188 12.7505 13.5881 12.9366 13.3089C13.3089 12.7505 13.402 12.099 13.7743 11.8198C14.3327 11.3545 14.9842 11.3545 15.2634 11.2614C16.3802 11.0752 16.8455 11.8198 17.404 12.2851C17.7762 12.5644 18.2416 13.2158 18.6139 14.0535C18.8931 14.705 19.2653 15.3564 19.3584 15.7287C19.4515 16.101 19.8238 16.6594 20.0099 17.404C20.196 18.0554 20.6614 18.5208 20.8475 18.8931C20.8475 18.8931 21.1267 19.7307 22.895 20.3822C23.2673 20.5683 24.0119 20.7545 24.4772 20.9406C25.2218 21.2198 25.9663 21.2198 26.897 21.0337C27.5485 21.0337 27.9208 20.103 28.2 19.3584C28.3861 18.8931 28.5723 17.5901 28.6653 17.2178C28.7584 16.8455 28.4792 16.5663 28.7584 16.2871C29.0376 15.9149 29.1307 15.9149 29.3168 15.4495C29.596 14.4257 31.5505 14.3327 32.5743 14.3327C33.4119 14.3327 33.3188 15.1703 34.8079 14.8911C35.6455 14.705 36.4832 14.9842 37.4139 15.2634C38.1584 15.4495 38.903 15.7287 39.2752 16.1941C39.5545 16.4733 40.2059 18.1485 39.5545 18.2416C39.6475 18.3347 39.6475 18.4277 39.8337 18.5208C39.6475 19.1723 38.996 18.7069 38.6238 18.6139C38.1584 18.5208 37.7861 18.6139 37.2277 18.8931C36.3901 19.2653 35.0871 19.2653 34.4356 19.8238C33.7842 20.3822 33.7842 21.499 33.5049 22.1505C33.5049 22.1505 32.6673 24.2911 30.899 25.501C30.4337 25.8733 29.596 26.6178 27.6416 26.897C26.804 26.9901 25.9663 27.0832 25.0356 26.9901C24.5703 26.9901 24.198 26.9901 23.7327 26.897C23.4535 26.897 22.6158 26.897 22.6158 26.9901L22.5228 27.2693C22.5228 27.3624 22.5228 27.5485 22.6158 27.5485C22.6158 27.7347 22.6158 27.9208 22.7089 28.1069C22.7089 28.4792 22.7089 28.8515 22.7089 29.2238C22.7089 29.9683 22.9881 30.7129 23.0812 31.4574C23.0812 32.295 23.5465 33.2257 23.9188 33.9703C24.1049 34.2495 24.2911 34.2495 24.3842 34.6218C24.4772 34.9941 24.3842 35.3663 24.4772 35.8317C24.6634 37.4139 25.1287 38.996 25.8733 40.4851C26.7109 40.299 27.6416 40.0198 28.7584 39.8337C30.8059 39.5545 33.6911 39.6475 35.5525 39.5545C40.2059 39.0891 42.8119 41.5089 47 40.4851V5.95644C46.9069 2.69901 44.301 0 40.9505 0Z" fill="#D54000"/>
<path d="M10.796 33.2258C11.1683 32.4812 11.3545 31.7367 11.5406 30.9921C11.8198 30.2475 12.1921 29.3169 12.9366 28.9446C12.8436 28.8515 11.4475 28.7584 11.1683 28.7584C10.796 28.7584 10.4238 28.6654 9.95842 28.5723C9.21386 28.3862 8.37624 28.2931 7.72475 28.107C7.2594 28.0139 5.86337 27.4555 5.49109 27.3624C4.74653 26.9901 4.28119 26.0594 3.6297 26.1525C3.25743 26.2456 2.88515 26.3386 2.69901 26.7109C2.51287 26.9901 2.4198 27.5485 2.32673 27.9208C2.14059 28.2931 1.95446 28.7584 1.67525 29.1307C1.2099 29.8753 0.465347 30.5268 0.186139 31.1782C0.0930693 31.3644 0.0930693 31.4574 0 31.6436V39.6475C0.372277 39.7406 0.744554 39.8337 1.2099 39.9268C4.46733 40.7644 5.30495 40.8575 8.56238 40.4852H8.84158C9.12079 39.9268 9.30693 38.2515 9.4 37.6931C9.49307 37.3208 9.67921 36.9485 9.77228 36.4832C9.86535 36.1109 9.77228 35.7386 9.77228 35.3664C9.67921 34.3426 10.4238 33.9703 10.796 33.2258Z" fill="#D54000"/>
<path d="M62.58 20.2499H74.05V22.2339H62.58V20.2499ZM62.828 31.4409H60.534V9.74092H75.414V11.7249H62.828V31.4409ZM88.8932 31.6269C86.1239 31.6269 83.9435 30.8313 82.3522 29.2399C80.7609 27.6486 79.9652 25.2926 79.9652 22.1719V9.74092H82.2592V22.0789C82.2592 24.6416 82.8379 26.5326 83.9952 27.7519C85.1525 28.9713 86.7852 29.5809 88.8932 29.5809C91.0219 29.5809 92.6649 28.9713 93.8222 27.7519C94.9795 26.5326 95.5582 24.6416 95.5582 22.0789V9.74092H97.7902V22.1719C97.7902 25.2926 96.9945 27.6486 95.4032 29.2399C93.8325 30.8313 91.6625 31.6269 88.8932 31.6269ZM104.703 31.4409V9.74092H106.594L121.567 28.5889H120.575V9.74092H122.838V31.4409H120.947L106.005 12.5929H106.997V31.4409H104.703Z" fill="white"/>
<path d="M137.29 32.6433C135.742 32.6433 134.376 32.3702 133.101 31.8238C131.826 31.2774 130.734 30.4578 129.823 29.4561C128.912 28.4544 128.184 27.1796 127.729 25.7225C127.273 24.2655 127 22.6264 127 20.7141C127 18.8928 127.273 17.2537 127.729 15.7966C128.184 14.3396 128.912 13.1558 129.823 12.1541C130.734 11.1524 131.826 10.4239 133.101 9.87754C134.376 9.33116 135.742 9.05797 137.29 9.05797C138.838 9.05797 140.204 9.33116 141.479 9.87754C142.754 10.4239 143.847 11.1524 144.757 12.1541C145.668 13.1558 146.396 14.3396 146.852 15.7966C147.307 17.2537 147.58 18.8928 147.58 20.7141C147.58 22.5353 147.307 24.1745 146.852 25.7225C146.396 27.1796 145.668 28.4544 144.757 29.4561C143.847 30.4578 142.754 31.2774 141.479 31.8238C140.204 32.3702 138.838 32.6433 137.29 32.6433ZM137.29 28.2723C138.838 28.2723 140.022 27.6349 140.933 26.2689C141.843 24.903 142.299 23.1728 142.299 20.8051C142.299 18.5285 141.843 16.7983 140.933 15.5235C140.022 14.2486 138.838 13.6111 137.29 13.6111C135.742 13.6111 134.558 14.2486 133.648 15.5235C132.737 16.7983 132.282 18.5285 132.282 20.8051C132.282 23.0817 132.737 24.903 133.648 26.2689C134.467 27.6349 135.742 28.2723 137.29 28.2723ZM149.31 21.0783C149.31 19.166 149.584 17.5269 150.221 16.0698C150.768 14.6128 151.587 13.3379 152.589 12.3362C153.59 11.3345 154.774 10.515 156.049 9.9686C157.324 9.42222 158.781 9.14903 160.238 9.14903C161.604 9.14903 162.97 9.42222 164.063 10.0597C165.247 10.606 166.157 11.3345 166.886 12.1541L164.063 15.3413C163.516 14.795 162.879 14.4307 162.333 14.0664C161.786 13.7933 161.058 13.6111 160.238 13.6111C159.419 13.6111 158.69 13.7933 158.053 14.1575C157.415 14.5218 156.778 14.9771 156.231 15.6145C155.685 16.252 155.321 16.9805 155.047 17.8911C154.774 18.8017 154.592 19.8034 154.592 20.9873C154.592 23.3549 155.047 25.1762 156.049 26.451C157.051 27.7259 158.417 28.3634 160.056 28.3634C160.967 28.3634 161.786 28.1812 162.515 27.817C163.243 27.4527 163.79 26.9974 164.427 26.36L167.25 29.4561C166.339 30.5489 165.247 31.3685 163.972 31.9148C162.788 32.4612 161.422 32.7344 160.056 32.7344C158.599 32.7344 157.233 32.4612 155.958 32.0059C154.683 31.5506 153.499 30.731 152.589 29.8204C151.678 28.9098 150.859 27.6349 150.312 26.1779C149.584 24.6298 149.31 22.9906 149.31 21.0783ZM168.889 27.4527C168.889 25.6315 169.618 24.2655 171.166 23.2638C172.714 22.2621 175.172 21.5336 178.542 21.2604C178.451 20.5319 178.269 19.8945 177.813 19.4392C177.358 18.9839 176.721 18.8017 175.81 18.8017C175.081 18.8017 174.353 18.9839 173.624 19.2571C172.896 19.5302 172.076 19.8945 171.257 20.4409L169.435 17.0715C170.528 16.4341 171.712 15.8877 172.896 15.4324C174.08 14.9771 175.446 14.795 176.721 14.795C178.906 14.795 180.636 15.4324 181.82 16.7073C183.004 17.9822 183.55 19.8945 183.55 22.6264L183.55 32.4612L179.543 32.4612L179.179 30.731H179.088C178.36 31.3685 177.54 31.9148 176.721 32.2791C175.901 32.6433 174.99 32.9165 173.989 32.9165C173.169 32.9165 172.532 32.8255 171.894 32.5523C171.257 32.2791 170.71 31.9148 170.255 31.4595C169.8 31.0042 169.435 30.4578 169.253 29.8204C168.98 28.9098 168.889 28.1812 168.889 27.4527ZM173.715 27.0885C173.715 27.6349 173.898 28.0902 174.262 28.3634C174.626 28.6366 175.081 28.7276 175.719 28.7276C176.356 28.7276 176.812 28.6366 177.267 28.3634C177.722 28.0902 178.086 27.7259 178.542 27.2706V24.2655C176.721 24.5387 175.446 24.903 174.717 25.3583C174.08 25.8136 173.715 26.451 173.715 27.0885ZM186.646 15.0681L190.835 15.0681L191.2 17.2537H191.382C192.11 16.5252 192.839 15.8877 193.658 15.4324C194.478 14.886 195.48 14.6128 196.572 14.6128C197.756 14.6128 198.758 14.886 199.577 15.3413C200.306 15.7966 200.943 16.5252 201.399 17.4358C202.127 16.6162 202.947 15.9788 203.766 15.4324C204.586 14.886 205.588 14.6128 206.771 14.6128C208.593 14.6128 209.959 15.2503 210.869 16.4341C211.78 17.709 212.144 19.3481 212.144 21.5336L212.144 32.188H207.045L207.045 22.1711C207.045 20.8962 206.862 20.0766 206.498 19.6213C206.134 19.166 205.588 18.8928 204.859 18.8928C204.039 18.8928 203.038 19.4392 201.945 20.5319L201.945 32.188L196.845 32.188L196.845 22.1711C196.845 20.8962 196.663 20.0766 196.299 19.6213C195.935 19.166 195.388 18.8928 194.66 18.8928C193.749 18.8928 192.839 19.4392 191.746 20.5319L191.746 32.188L186.646 32.188L186.646 15.0681ZM215.058 7.96521L220.158 7.96521L220.158 27.1796C220.158 27.7259 220.249 28.0902 220.431 28.2723C220.613 28.4544 220.795 28.5455 221.068 28.5455L221.341 28.5455C221.433 28.5455 221.524 28.5455 221.706 28.4544L222.343 32.2791C222.07 32.3702 221.706 32.4612 221.25 32.5523C220.795 32.6433 220.34 32.6433 219.702 32.6433C218.792 32.6433 218.063 32.4612 217.517 32.188C216.879 31.9148 216.424 31.5506 216.06 31.0042C215.696 30.5489 215.422 29.9114 215.24 29.1829C215.058 28.5455 215.058 27.817 215.058 26.9064L215.058 7.96521Z" fill="white"/>
<path d="M191.336 55H183.883V53.9609L187.609 49.8203C187.943 49.4505 188.221 49.1224 188.445 48.8359C188.669 48.5495 188.849 48.2865 188.984 48.0469C189.12 47.8021 189.216 47.5729 189.273 47.3594C189.331 47.1406 189.359 46.9167 189.359 46.6875C189.359 46.4062 189.312 46.1432 189.219 45.8984C189.13 45.6484 188.997 45.4323 188.82 45.25C188.648 45.0677 188.438 44.9245 188.188 44.8203C187.943 44.7109 187.664 44.6562 187.352 44.6562C186.971 44.6562 186.641 44.7109 186.359 44.8203C186.083 44.9297 185.852 45.0859 185.664 45.2891C185.482 45.487 185.344 45.7292 185.25 46.0156C185.161 46.3021 185.117 46.6224 185.117 46.9766H183.664C183.664 46.4974 183.747 46.0469 183.914 45.625C184.081 45.1979 184.32 44.8255 184.633 44.5078C184.951 44.1901 185.336 43.9375 185.789 43.75C186.247 43.5625 186.768 43.4688 187.352 43.4688C187.888 43.4688 188.37 43.5495 188.797 43.7109C189.229 43.8672 189.594 44.0859 189.891 44.3672C190.188 44.6484 190.414 44.9818 190.57 45.3672C190.732 45.7526 190.812 46.1719 190.812 46.625C190.812 46.9635 190.755 47.2995 190.641 47.6328C190.526 47.9609 190.37 48.2865 190.172 48.6094C189.979 48.9323 189.753 49.2526 189.492 49.5703C189.237 49.8828 188.966 50.1953 188.68 50.5078L185.625 53.8203H191.336V55ZM201.109 50.6484C201.109 51.3724 201.026 52.0156 200.859 52.5781C200.693 53.1354 200.453 53.6068 200.141 53.9922C199.828 54.3724 199.445 54.6615 198.992 54.8594C198.539 55.0573 198.021 55.1562 197.438 55.1562C196.859 55.1562 196.341 55.0573 195.883 54.8594C195.43 54.6615 195.044 54.3724 194.727 53.9922C194.409 53.6068 194.164 53.1354 193.992 52.5781C193.826 52.0156 193.742 51.3724 193.742 50.6484V47.9844C193.742 47.2604 193.826 46.6198 193.992 46.0625C194.159 45.5 194.398 45.026 194.711 44.6406C195.029 44.2552 195.414 43.9635 195.867 43.7656C196.326 43.5625 196.844 43.4609 197.422 43.4609C198.005 43.4609 198.523 43.5625 198.977 43.7656C199.435 43.9635 199.82 44.2552 200.133 44.6406C200.451 45.026 200.693 45.5 200.859 46.0625C201.026 46.6198 201.109 47.2604 201.109 47.9844V50.6484ZM195.195 50.3594L199.625 46.9609C199.542 46.2057 199.32 45.6328 198.961 45.2422C198.607 44.8464 198.094 44.6484 197.422 44.6484C196.661 44.6484 196.099 44.9062 195.734 45.4219C195.375 45.9323 195.195 46.6797 195.195 47.6641V50.3594ZM199.656 48.3438L195.234 51.7266C195.323 52.4609 195.549 53.0208 195.914 53.4062C196.279 53.7917 196.786 53.9844 197.438 53.9844C198.203 53.9844 198.763 53.724 199.117 53.2031C199.477 52.6823 199.656 51.9323 199.656 50.9531V48.3438ZM210.555 55H203.102V53.9609L206.828 49.8203C207.161 49.4505 207.44 49.1224 207.664 48.8359C207.888 48.5495 208.068 48.2865 208.203 48.0469C208.339 47.8021 208.435 47.5729 208.492 47.3594C208.549 47.1406 208.578 46.9167 208.578 46.6875C208.578 46.4062 208.531 46.1432 208.438 45.8984C208.349 45.6484 208.216 45.4323 208.039 45.25C207.867 45.0677 207.656 44.9245 207.406 44.8203C207.161 44.7109 206.883 44.6562 206.57 44.6562C206.19 44.6562 205.859 44.7109 205.578 44.8203C205.302 44.9297 205.07 45.0859 204.883 45.2891C204.701 45.487 204.562 45.7292 204.469 46.0156C204.38 46.3021 204.336 46.6224 204.336 46.9766H202.883C202.883 46.4974 202.966 46.0469 203.133 45.625C203.299 45.1979 203.539 44.8255 203.852 44.5078C204.169 44.1901 204.555 43.9375 205.008 43.75C205.466 43.5625 205.987 43.4688 206.57 43.4688C207.107 43.4688 207.589 43.5495 208.016 43.7109C208.448 43.8672 208.812 44.0859 209.109 44.3672C209.406 44.6484 209.633 44.9818 209.789 45.3672C209.951 45.7526 210.031 46.1719 210.031 46.625C210.031 46.9635 209.974 47.2995 209.859 47.6328C209.745 47.9609 209.589 48.2865 209.391 48.6094C209.198 48.9323 208.971 49.2526 208.711 49.5703C208.456 49.8828 208.185 50.1953 207.898 50.5078L204.844 53.8203H210.555V55ZM219.047 51.1797H220.633V52.3594H219.047V55H217.602V52.3594H212.414V51.5078L217.508 43.625H219.047V51.1797ZM214.016 51.1797H217.602V45.5469L217.367 45.9844L214.016 51.1797Z" fill="#F29100"/>
</svg>
