<svg width="439" height="210" viewBox="0 0 439 210" fill="none" xmlns="http://www.w3.org/2000/svg">
<g filter="url(#filter0_d_5_27)">
<path d="M34.6218 147.125V62.1251H52.4579V97.1957H88.6657V62.1251H106.461V147.125H88.6657V112.013H52.4579V147.125H34.6218Z" fill="black"/>
<path fill-rule="evenodd" clip-rule="evenodd" d="M163.58 61.1232C164.681 58.5686 161.313 56.4844 159.55 58.6297L118.89 108.099C117.738 109.501 118.488 111.634 120.259 111.993L138.575 115.704C139.364 115.864 140.156 115.447 140.476 114.704L163.58 61.1232ZM132.222 150.263C131.184 152.757 134.387 154.813 136.192 152.812L180.224 103.991C181.519 102.555 180.682 100.245 178.774 99.9872L155.813 96.8849C155.049 96.7817 154.311 97.2073 154.013 97.9233L132.222 150.263Z" fill="black"/>
<path d="M192.728 147.125V62.1251H226.011C232.409 62.1251 237.86 63.3563 242.364 65.8189C246.868 68.2537 250.3 71.6434 252.662 75.9874C255.051 80.3038 256.246 85.2841 256.246 90.9288C256.246 96.5732 255.037 101.554 252.621 105.87C250.204 110.187 246.703 113.548 242.117 115.956C237.558 118.363 232.038 119.567 225.558 119.567H204.344V105.165H222.674C226.107 105.165 228.936 104.57 231.16 103.38C233.412 102.163 235.087 100.488 236.185 98.3579C237.311 96.1999 237.874 93.7235 237.874 90.9288C237.874 88.1066 237.311 85.644 236.185 83.5409C235.087 81.4104 233.412 79.7641 231.16 78.6023C228.908 77.4122 226.052 76.8175 222.592 76.8175H210.564V147.125H192.728ZM267.831 147.125V62.1251H324.676V76.942H285.667V97.1957H321.751V112.013H285.667V132.308H324.841V147.125H267.831ZM338.856 147.125V62.1251H372.138C378.511 62.1251 383.946 63.2733 388.449 65.57C392.984 67.8388 396.429 71.0621 398.79 75.2404C401.178 79.3908 402.372 84.2741 402.372 89.891C402.372 95.5357 401.165 100.392 398.749 104.459C396.334 108.499 392.83 111.598 388.245 113.756C383.687 115.914 378.167 116.993 371.685 116.993H349.401V102.55H368.802C372.207 102.55 375.035 102.079 377.287 101.139C379.538 100.198 381.213 98.7869 382.312 96.9052C383.438 95.0239 384.001 92.6857 384.001 89.891C384.001 87.0688 383.438 84.6894 382.312 82.7524C381.213 80.8157 379.525 79.3492 377.246 78.3531C374.994 77.3294 372.152 76.8175 368.72 76.8175H356.692V147.125H338.856ZM384.414 108.444L405.382 147.125H385.689L365.179 108.444H384.414Z" fill="black"/>
</g>
<defs>
<filter id="filter0_d_5_27" x="-4" y="0" width="447" height="218" filterUnits="userSpaceOnUse" color-interpolation-filters="sRGB">
<feFlood flood-opacity="0" result="BackgroundImageFix"/>
<feColorMatrix in="SourceAlpha" type="matrix" values="0 0 0 0 0 0 0 0 0 0 0 0 0 0 0 0 0 0 127 0" result="hardAlpha"/>
<feOffset dy="4"/>
<feGaussianBlur stdDeviation="2"/>
<feComposite in2="hardAlpha" operator="out"/>
<feColorMatrix type="matrix" values="0 0 0 0 0 0 0 0 0 0 0 0 0 0 0 0 0 0 0.25 0"/>
<feBlend mode="normal" in2="BackgroundImageFix" result="effect1_dropShadow_5_27"/>
<feBlend mode="normal" in="SourceGraphic" in2="effect1_dropShadow_5_27" result="shape"/>
</filter>
</defs>
</svg>
