<svg width="528" height="210" viewBox="0 0 528 210" fill="none" xmlns="http://www.w3.org/2000/svg">
<g filter="url(#filter0_d_3_17)">
<g clip-path="url(#clip0_3_17)">
<path d="M244.753 92.6167C247.708 92.6167 249.927 91.3777 251.445 89.6757V82.9225C246.006 83.2561 240.703 84.6244 240.703 89.0801C240.703 91.1802 242.337 92.6167 244.753 92.6167ZM251.445 77.6159V74.5456C251.445 71.9145 249.927 70.3453 246.592 70.3453C243.256 70.3453 239.716 71.7273 235.393 73.8172L231.989 66.7406C236.7 64.3886 242.201 62.7513 246.99 62.7513C257.069 62.7513 261.003 67.6597 261.003 74.8656V89.543C261.003 91.4321 262.123 92.2967 263.89 92.2967V98.9036C257.269 98.9036 254.516 97.9198 252.548 94.5807C249.611 97.7224 246.34 99.489 241.622 99.489C235.461 99.489 231.138 95.7652 231.138 90.1965C231.138 82.5243 238.402 78.5349 251.445 77.6159ZM269.819 63.5342H278.86L279.313 67.5916C281.879 64.9196 285.603 62.6866 290.001 62.6866C297.864 62.6866 301.199 67.5269 301.199 75.4647V98.7061H291.573V75.1958C291.573 72.0472 290.256 69.8926 286.985 69.8926C284.034 69.8926 281.481 71.3937 279.381 74.0112V98.7061H269.819M214.602 52.8597V83.3888C214.602 88.0929 212.301 90.782 208.312 90.782C205.623 90.782 203.526 89.4647 201.879 87.242L195.309 93.1885C198.699 97.2833 203.284 99.5026 208.829 99.5026C218.391 99.5026 224.494 94.0633 224.494 83.5726V52.8597M213.564 128.476C208.537 127.2 204.19 126.093 204.19 122.359C204.19 119.248 207.168 117.148 211.597 117.148C215.756 117.148 220.038 118.169 224 120.086L227.445 112.761C222.033 110.232 216.689 108.996 211.13 108.996C201.276 108.996 194.39 114.554 194.39 122.492C194.39 132.585 202.648 134.726 209.946 136.625C215.051 137.952 219.466 139.1 219.466 142.929C219.466 146.278 216.529 148.273 211.597 148.273C207.328 148.273 202.529 146.837 198.032 144.205L193.58 151.517C198.471 154.512 205.531 156.425 211.661 156.425C222.526 156.425 229.28 151.2 229.28 142.796C229.28 132.438 220.569 130.243 213.564 128.476ZM237.03 127.264H231.461V120.457H237.03V111.682H246.66V120.457H254.529V127.264H246.66V144.76C246.66 147.371 247.643 148.685 249.876 148.685C251.646 148.685 253.28 148.099 254.648 147.119L258.188 152.872C255.239 155.141 251.63 156.384 247.909 156.412C240.567 156.412 237.03 152.82 237.03 144.951M262.559 120.457H271.402L272.052 125.896C274.741 121.175 278.077 119.473 282.08 119.473C283.714 119.473 285.218 119.738 286.403 120.191L285.018 128.966C283.508 128.425 281.913 128.16 280.31 128.183C276.709 128.183 274.285 130.416 272.12 134.47V155.625H262.559M365.314 127.264H359.742V120.457H365.314V111.682H374.94V120.457H382.813V127.264H374.94V144.76C374.94 147.371 375.928 148.685 378.143 148.685C379.913 148.685 381.547 148.099 382.933 147.119L386.469 152.872C383.52 155.141 379.91 156.384 376.19 156.412C368.851 156.412 365.314 152.82 365.314 144.951M324.839 69.5454C329.428 69.5454 331.129 72.9492 331.129 77.4049H316.915C317.834 72.2991 320.904 69.5454 324.839 69.5454ZM324.574 62.6049C314.815 62.6049 306.955 69.5488 306.955 80.8223C306.955 92.5996 314.297 99.4754 324.642 99.4754C329.825 99.4853 334.885 97.8869 339.122 94.9006L335.119 88.8009C332.181 90.6356 328.897 91.8168 325.36 91.8168C320.506 91.8168 317.739 89.3319 316.901 84.3317H339.585C339.84 82.8306 340.225 81.2614 340.225 78.6541C340.225 69.2152 334.666 62.6049 324.574 62.6049ZM341.593 126.482C346.168 126.482 347.87 129.885 347.87 134.338H333.655C334.574 129.232 337.658 126.482 341.593 126.482ZM341.327 119.538C331.569 119.538 323.695 126.482 323.695 137.755C323.695 149.536 331.038 156.425 341.395 156.425C346.634 156.425 351.539 154.842 355.862 151.837L351.873 145.734C348.918 147.572 345.65 148.753 342.11 148.753C337.243 148.753 334.479 146.268 333.655 141.264H356.325C356.59 139.767 356.978 138.194 356.978 135.59C356.978 126.148 351.406 119.538 341.327 119.538ZM304.814 126.482C309.403 126.482 311.105 129.885 311.105 134.338H296.89C297.809 129.232 300.893 126.482 304.814 126.482ZM304.562 119.538C294.804 119.538 286.931 126.482 286.931 137.755C286.931 149.536 294.273 156.425 304.617 156.425C309.869 156.425 314.774 154.842 319.11 151.837L315.108 145.734C312.156 147.572 308.885 148.753 305.349 148.753C300.481 148.753 297.717 146.268 296.877 141.264H319.563C319.829 139.767 320.21 138.194 320.21 135.59C320.21 126.162 314.641 119.538 304.562 119.538ZM55.0571 131.08C64.4857 147.17 81.9815 157.981 101.942 157.926C131.793 157.834 156.019 133.487 155.937 103.625C155.859 73.7628 131.497 49.5376 101.635 49.6159C71.7836 49.6942 47.5584 74.0657 47.6401 103.917C47.6569 107.481 48.0217 111.035 48.7293 114.527C48.8348 114.966 49.2876 115.208 49.7164 115.099L57.2526 113.227C57.3587 113.204 57.4592 113.159 57.5482 113.097C57.6372 113.035 57.713 112.955 57.7712 112.864C57.8294 112.772 57.8689 112.67 57.8874 112.563C57.9058 112.455 57.903 112.346 57.8789 112.24H57.8891C57.3558 109.488 57.0845 106.693 57.079 103.89C57.0109 79.2395 77.0119 59.1228 101.663 59.0547C126.327 58.9867 146.444 79.0013 146.498 103.652C146.576 128.303 126.565 148.419 101.914 148.487C85.5862 148.525 71.2526 139.763 63.4237 126.679C63.3188 126.487 63.1448 126.342 62.9369 126.273C62.7291 126.204 62.5028 126.216 62.3039 126.308L55.4043 129.95C55.2086 130.054 55.0623 130.232 54.9972 130.443C54.9321 130.655 54.9536 130.884 55.0571 131.08Z" fill="black"/>
<path d="M130.289 115.47L137.165 119.153C137.573 119.368 138.118 119.248 138.281 118.809C140.232 114.151 141.253 109.155 141.287 104.105C141.471 82.3235 123.893 64.4669 102.116 64.2797H101.782C80.188 64.2797 62.4777 81.8436 62.2905 103.438C62.1203 125.219 79.6842 143.089 101.462 143.263L101.796 143.273C112.113 143.273 121.528 139.256 128.587 132.717C128.934 132.411 128.999 131.88 128.679 131.533L122.818 126.243C122.471 125.937 121.953 126.005 121.647 126.294L121.633 126.281C116.169 131.144 109.11 133.832 101.796 133.834H101.544C84.9636 133.688 71.6001 120.099 71.7328 103.519C71.8656 87.0855 85.3482 73.7084 101.782 73.7084H102.047C118.614 73.8547 131.991 87.4565 131.845 104.023C131.817 107.549 131.164 111.042 129.918 114.34C129.826 114.541 129.813 114.768 129.882 114.978C129.951 115.187 130.096 115.363 130.289 115.47Z" fill="black"/>
<path d="M141.566 47.6621C141.191 47.4068 140.687 47.4749 140.436 47.8596L136.017 54.2418C135.762 54.6162 135.803 55.1336 136.177 55.3991C151.29 66.1825 161.185 83.8382 161.172 103.785C161.172 136.52 134.54 163.138 101.805 163.138C69.0706 163.138 42.4355 136.506 42.4355 103.758C42.4355 71.0363 69.0706 44.4047 101.819 44.4149C108.739 44.4093 115.605 45.6202 122.106 47.9923C122.309 48.0649 122.533 48.0559 122.73 47.967C122.926 47.8781 123.081 47.7164 123.161 47.5158L125.939 40.2281C126.011 40.0301 126.004 39.8117 125.92 39.6184C125.836 39.4251 125.68 39.2716 125.486 39.19C117.91 36.3953 109.897 34.9685 101.822 34.976C63.8729 34.9624 33.0136 65.8251 33 103.768C33 141.704 63.8729 172.58 101.809 172.58C139.741 172.58 170.618 141.717 170.618 103.785C170.618 80.6386 159.13 60.1338 141.566 47.6621Z" fill="black"/>
</g>
</g>
<defs>
<filter id="filter0_d_3_17" x="-4" y="0" width="536" height="218" filterUnits="userSpaceOnUse" color-interpolation-filters="sRGB">
<feFlood flood-opacity="0" result="BackgroundImageFix"/>
<feColorMatrix in="SourceAlpha" type="matrix" values="0 0 0 0 0 0 0 0 0 0 0 0 0 0 0 0 0 0 127 0" result="hardAlpha"/>
<feOffset dy="4"/>
<feGaussianBlur stdDeviation="2"/>
<feComposite in2="hardAlpha" operator="out"/>
<feColorMatrix type="matrix" values="0 0 0 0 0 0 0 0 0 0 0 0 0 0 0 0 0 0 0.25 0"/>
<feBlend mode="normal" in2="BackgroundImageFix" result="effect1_dropShadow_3_17"/>
<feBlend mode="normal" in="SourceGraphic" in2="effect1_dropShadow_3_17" result="shape"/>
</filter>
<clipPath id="clip0_3_17">
<rect width="354" height="139.558" fill="white" transform="translate(33 34.976)"/>
</clipPath>
</defs>
</svg>
