<svg width="678" height="210" viewBox="0 0 678 210" fill="none" xmlns="http://www.w3.org/2000/svg">
<g clip-path="url(#clip0_1_7)">
<path d="M175.023 147.039H127.895V83.3787H142.42V134.832H175.177V147.039H175.023ZM196.964 86.1599C196.964 90.6409 193.874 93.5767 189.238 93.5767C184.603 93.5767 181.667 90.7954 181.667 86.1599C181.667 81.679 184.757 78.8977 189.238 78.8977C193.874 78.8977 196.964 81.8335 196.964 86.1599ZM182.13 147.039V97.9031H196.655V147.039H182.13ZM256.916 134.523C256.916 137.614 256.916 141.322 256.761 143.949C256.143 159.709 245.636 166.972 229.721 166.972C215.197 166.972 206.853 160.945 205.617 149.975L205.462 149.048H219.523L219.678 149.82C220.141 153.838 224.159 156.155 230.03 156.155C237.138 156.155 241.773 152.756 242.237 145.494C242.391 143.794 242.391 141.631 242.391 139.313V138.077L238.683 143.485C235.902 145.494 231.73 146.73 226.785 146.73C213.188 146.73 204.381 137.305 204.381 122.626C204.381 105.011 215.197 96.358 227.712 96.358C231.73 96.358 236.674 97.4396 239.147 98.9847L242.391 104.084V97.9031H256.916V134.523ZM242.391 121.699V120.771C242.391 110.264 236.52 106.556 231.112 106.556C224.159 106.556 219.214 111.037 219.214 121.699C219.214 131.433 223.85 136.841 230.648 136.841C237.292 136.996 242.391 132.824 242.391 121.699ZM315.632 119.226V146.885H301.107V121.389C301.107 119.535 301.107 117.063 300.953 114.591C300.644 109.646 297.862 106.556 292.145 106.556C286.428 106.711 282.256 111.655 282.256 124.171V146.885H267.732V78.8977H282.256V105.629L286.274 99.7573C289.519 97.5941 293.072 96.667 297.708 96.667C308.061 96.667 313.932 101.612 315.168 110.264C315.632 112.582 315.632 115.363 315.632 119.226ZM343.29 128.034C343.29 129.733 343.29 131.278 343.445 132.669C343.754 137.614 345.453 138.695 352.87 138.232V147.503C349.934 147.966 346.998 148.275 343.908 148.275C333.092 148.275 329.693 144.721 329.075 137.614C328.92 135.141 328.92 132.978 328.92 130.197V107.483H321.503V98.2122H328.92V85.8509H343.445V98.2122H353.797V107.483H343.445V128.034H343.29ZM408.959 102.539H394.435C393.662 96.667 390.417 92.8041 384.237 92.8041C379.756 92.8041 376.511 94.9673 376.511 99.4483C376.511 104.238 379.756 106.865 389.954 109.183C404.015 112.428 410.041 119.072 410.041 129.115C410.041 141.477 398.607 148.121 385.782 148.121C370.176 148.121 359.978 141.477 358.742 127.725H373.266C374.502 134.214 379.601 137.459 385.473 137.459C390.726 137.459 394.898 134.678 394.898 130.351C394.898 125.87 391.962 122.935 383.31 120.926C369.712 117.527 361.368 113.046 361.368 100.839C361.368 88.9412 372.339 81.988 384.7 81.988C400.615 82.1425 407.569 90.9499 408.959 102.539ZM466.13 122.317C466.13 137.614 456.395 148.121 440.326 148.121C424.102 148.121 414.522 137.459 414.522 122.317C414.522 107.02 424.102 96.5125 440.326 96.5125C456.55 96.667 466.13 107.174 466.13 122.317ZM451.296 122.317C451.296 112.119 447.124 106.556 440.326 106.556C433.373 106.556 429.201 112.119 429.201 122.317C429.201 132.515 433.373 138.232 440.326 138.232C447.124 138.386 451.296 132.669 451.296 122.317ZM520.828 147.039H506.458V138.695L502.287 145.185C499.042 147.348 495.488 148.275 490.852 148.275C480.654 148.275 474.628 142.558 473.547 135.914C473.238 133.442 473.083 130.815 473.083 126.798V97.9031H487.453V123.553C487.453 125.098 487.608 127.725 487.762 130.351C488.38 135.296 491.007 138.232 496.569 138.232C502.441 138.232 506.304 133.133 506.304 124.171V97.9031H520.674V147.039H520.828ZM562.548 96.976V108.719C551.113 107.947 546.323 112.582 546.323 126.488V147.039H531.799V97.9031H546.323V107.329L550.032 100.53C552.504 97.9031 556.058 96.667 558.994 96.667C560.384 96.667 561.466 96.8215 562.548 96.976ZM613.074 115.981H599.013C597.932 109.183 594.532 106.556 589.742 106.556C583.716 106.556 579.853 111.5 579.853 122.008C579.853 133.442 583.871 138.386 589.742 138.386C594.223 138.386 597.623 135.296 598.704 129.579H612.92C610.911 141.94 601.64 148.275 588.815 148.275C575.218 148.275 564.865 139.468 564.865 122.935C564.865 106.092 576.145 96.667 590.051 96.667C603.958 96.667 612.456 105.011 613.074 115.981ZM666.691 126.179H632.234C633.007 135.605 637.179 138.386 642.587 138.386C647.686 138.386 651.085 135.605 651.858 130.969H666.073C663.446 142.249 654.175 148.275 642.278 148.275C628.526 148.275 617.71 139.931 617.71 122.626C617.71 107.947 627.599 96.667 643.05 96.667C658.656 96.667 666.846 108.565 666.846 121.544C667 122.78 666.846 124.48 666.691 126.179ZM632.698 117.063H652.012C651.239 110.11 647.995 106.556 642.587 106.556C637.488 106.556 633.779 109.801 632.698 117.063ZM88.1849 113.046C88.0304 112.582 87.5668 112.119 86.9488 112.119H52.1828C51.7192 112.119 51.4102 111.964 51.1012 111.655C50.7921 111.346 50.7921 110.882 50.7921 110.573L51.4102 107.792C51.5647 107.174 52.0283 106.711 52.6463 106.711H65.6256C66.8618 106.711 67.7889 105.938 68.0979 104.702L73.5059 77.8161C73.6604 77.198 73.3514 76.7345 72.8879 76.4255C72.4243 76.1164 71.8063 76.271 71.3427 76.58L27.9238 115.363C27.4603 115.672 27.3058 116.29 27.6148 116.754C27.7693 117.218 28.2329 117.681 28.8509 117.681H63.6169C64.0805 117.681 64.3895 117.836 64.6985 118.145C65.0076 118.454 65.0076 118.917 65.0076 119.226L64.3895 122.008C64.235 122.626 63.7715 123.089 63.1534 123.089H50.3286C49.0925 123.089 48.1654 123.862 47.8564 125.098L42.2938 151.984C42.1393 152.602 42.4483 153.065 42.9119 153.374C43.3754 153.683 43.9935 153.529 44.457 153.22L87.8759 114.436C88.1849 114.127 88.3394 113.509 88.1849 113.046Z" fill="#F15025"/>
<path d="M89.2665 162.8H26.5332C17.4167 162.8 10 155.383 10 146.266V83.5332C10 74.4167 17.4167 67 26.5332 67H89.2665C98.3829 67 105.8 74.4167 105.8 83.5332V146.266C105.8 155.383 98.3829 162.8 89.2665 162.8ZM26.5332 70.3993C19.2709 70.3993 13.3993 76.2709 13.3993 83.5332V146.266C13.3993 153.529 19.2709 159.555 26.6877 159.555H89.421C96.6832 159.555 102.709 153.683 102.709 146.266V83.5332C102.709 76.2709 96.8377 70.2448 89.421 70.2448H26.5332V70.3993Z" fill="#F15025"/>
</g>
<defs>
<clipPath id="clip0_1_7">
<rect width="657" height="99.9715" fill="white" transform="translate(10 67)"/>
</clipPath>
</defs>
</svg>
