<svg xmlns="http://www.w3.org/2000/svg" viewBox="0 0 425.2 64.7">
  <path
    fill="#f15025"
    d="M106.8 51.8H76.3V10.6h9.4v33.3h21.2v7.9zM121 12.4c0 2.9-2 4.8-5 4.8s-4.9-1.8-4.9-4.8c0-2.9 2-4.7 4.9-4.7 3 0 5 1.9 5 4.7zm-9.6 39.4V20h9.4v31.8h-9.4zm48.4-8.1c0 2 0 4.4-.1 6.1-.4 10.2-7.2 14.9-17.5 14.9-9.4 0-14.8-3.9-15.6-11l-.1-.6h9.1l.1.5c.3 2.6 2.9 4.1 6.7 4.1 4.6 0 7.6-2.2 7.9-6.9.1-1.1.1-2.5.1-4V46l-2.4 3.5c-1.8 1.3-4.5 2.1-7.7 2.1-8.8 0-14.5-6.1-14.5-15.6 0-11.4 7-17 15.1-17 2.6 0 5.8.7 7.4 1.7l2.1 3.3v-4h9.4v23.7zm-9.4-8.3v-.6c0-6.8-3.8-9.2-7.3-9.2-4.5 0-7.7 2.9-7.7 9.8 0 6.3 3 9.8 7.4 9.8 4.3.1 7.6-2.6 7.6-9.8zm47.4-1.6v17.9h-9.4V35.2c0-1.2 0-2.8-.1-4.4-.2-3.2-2-5.2-5.7-5.2-3.7.1-6.4 3.3-6.4 11.4v14.7h-9.4v-44h9.4V25l2.6-3.8c2.1-1.4 4.4-2 7.4-2 6.7 0 10.5 3.2 11.3 8.8.3 1.5.3 3.3.3 5.8zm17.9 5.7c0 1.1 0 2.1.1 3 .2 3.2 1.3 3.9 6.1 3.6v6c-1.9.3-3.8.5-5.8.5-7 0-9.2-2.3-9.6-6.9-.1-1.6-.1-3-.1-4.8V26.2h-4.8v-6h4.8v-8h9.4v8h6.7v6h-6.7v13.3zM258.2 23h-9.4c-.5-3.8-2.6-6.3-6.6-6.3-2.9 0-5 1.4-5 4.3 0 3.1 2.1 4.8 8.7 6.3 9.1 2.1 13 6.4 13 12.9 0 8-7.4 12.3-15.7 12.3-10.1 0-16.7-4.3-17.5-13.2h9.4c.8 4.2 4.1 6.3 7.9 6.3 3.4 0 6.1-1.8 6.1-4.6 0-2.9-1.9-4.8-7.5-6.1-8.8-2.2-14.2-5.1-14.2-13 0-7.7 7.1-12.2 15.1-12.2 10.3.1 14.8 5.8 15.7 13.3zm37 12.8c0 9.9-6.3 16.7-16.7 16.7-10.5 0-16.7-6.9-16.7-16.7 0-9.9 6.2-16.7 16.7-16.7 10.5.1 16.7 6.9 16.7 16.7zm-9.6 0c0-6.6-2.7-10.2-7.1-10.2-4.5 0-7.2 3.6-7.2 10.2s2.7 10.3 7.2 10.3c4.4.1 7.1-3.6 7.1-10.3zm45 16h-9.3v-5.4l-2.7 4.2c-2.1 1.4-4.4 2-7.4 2-6.6 0-10.5-3.7-11.2-8-.2-1.6-.3-3.3-.3-5.9V20h9.3v16.6c0 1 .1 2.7.2 4.4.4 3.2 2.1 5.1 5.7 5.1 3.8 0 6.3-3.3 6.3-9.1V20h9.3v31.8zm27-32.4V27c-7.4-.5-10.5 2.5-10.5 11.5v13.3h-9.4V20h9.4v6.1l2.4-4.4c1.6-1.7 3.9-2.5 5.8-2.5.9 0 1.6.1 2.3.2zm32.7 12.3h-9.1c-.7-4.4-2.9-6.1-6-6.1-3.9 0-6.4 3.2-6.4 10 0 7.4 2.6 10.6 6.4 10.6 2.9 0 5.1-2 5.8-5.7h9.2c-1.3 8-7.3 12.1-15.6 12.1-8.8 0-15.5-5.7-15.5-16.4 0-10.9 7.3-17 16.3-17s14.5 5.4 14.9 12.5zm34.7 6.6h-22.3c.5 6.1 3.2 7.9 6.7 7.9 3.3 0 5.5-1.8 6-4.8h9.2c-1.7 7.3-7.7 11.2-15.4 11.2-8.9 0-15.9-5.4-15.9-16.6 0-9.5 6.4-16.8 16.4-16.8 10.1 0 15.4 7.7 15.4 16.1.1.8 0 1.9-.1 3zm-22-5.9h12.5c-.5-4.5-2.6-6.8-6.1-6.8-3.3 0-5.7 2.1-6.4 6.8zM50.6 29.8c-.1-.3-.4-.6-.8-.6H27.3c-.3 0-.5-.1-.7-.3-.2-.2-.2-.5-.2-.7l.4-1.8c.1-.4.4-.7.8-.7H36c.8 0 1.4-.5 1.6-1.3L41.1 7c.1-.4-.1-.7-.4-.9-.3-.2-.7-.1-1 .1L11.6 31.3c-.3.2-.4.6-.2.9.1.3.4.6.8.6h22.5c.3 0 .5.1.7.3s.2.5.2.7l-.4 1.8c-.1.4-.4.7-.8.7h-8.3c-.8 0-1.4.5-1.6 1.3L20.9 55c-.1.4.1.7.4.9.3.2.7.1 1-.1l28.1-25.1c.2-.2.3-.6.2-.9z"
  />
  <path
    fill="#f15025"
    d="M51.3 62H10.7C4.8 62 0 57.2 0 51.3V10.7C0 4.8 4.8 0 10.7 0h40.6C57.2 0 62 4.8 62 10.7v40.6C62 57.2 57.2 62 51.3 62zM10.7 2.2C6 2.2 2.2 6 2.2 10.7v40.6c0 4.7 3.8 8.6 8.6 8.6h40.6c4.7 0 8.6-3.8 8.6-8.6V10.7c0-4.7-3.8-8.6-8.6-8.6H10.7z"
  />
</svg>
