<svg width="528" height="210" viewBox="0 0 528 210" fill="none" xmlns="http://www.w3.org/2000/svg">
<rect width="528" height="210" fill="white"/>
<g clip-path="url(#clip0_1_7)">
<path d="M138.608 138.407H102.452V89.566H113.595V129.042H138.727V138.407H138.608ZM155.442 91.6998C155.442 95.1377 153.071 97.3901 149.515 97.3901C145.958 97.3901 143.706 95.2563 143.706 91.6998C143.706 88.262 146.077 86.1281 149.515 86.1281C153.071 86.1281 155.442 88.3805 155.442 91.6998ZM144.062 138.407V100.709H155.205V138.407H144.062ZM201.438 128.805C201.438 131.176 201.438 134.021 201.32 136.036C200.846 148.128 192.784 153.7 180.574 153.7C169.431 153.7 163.029 149.077 162.081 140.66L161.962 139.949H172.75L172.868 140.541C173.224 143.623 176.306 145.402 180.811 145.402C186.264 145.402 189.821 142.794 190.176 137.222C190.295 135.918 190.295 134.258 190.295 132.48V131.532L187.45 135.681C185.316 137.222 182.115 138.17 178.322 138.17C167.89 138.17 161.132 130.939 161.132 119.677C161.132 106.163 169.431 99.524 179.033 99.524C182.115 99.524 185.909 100.354 187.805 101.539L190.295 105.451V100.709H201.438V128.805ZM190.295 118.966V118.254C190.295 110.193 185.79 107.348 181.641 107.348C176.306 107.348 172.513 110.786 172.513 118.966C172.513 126.434 176.069 130.583 181.285 130.583C186.383 130.702 190.295 127.501 190.295 118.966ZM246.486 117.069V138.289H235.343V118.729C235.343 117.306 235.343 115.409 235.224 113.513C234.987 109.719 232.853 107.348 228.467 107.348C224.081 107.467 220.88 111.26 220.88 120.862V138.289H209.737V86.1281H220.88V106.637L223.962 102.132C226.452 100.472 229.178 99.7611 232.735 99.7611C240.677 99.7611 245.182 103.555 246.131 110.193C246.486 111.971 246.486 114.105 246.486 117.069ZM267.706 123.826C267.706 125.13 267.706 126.316 267.825 127.383C268.062 131.176 269.366 132.006 275.056 131.65V138.763C272.804 139.119 270.551 139.356 268.18 139.356C259.882 139.356 257.274 136.629 256.8 131.176C256.681 129.279 256.681 127.62 256.681 125.486V108.059H250.991V100.947H256.681V91.4628H267.825V100.947H275.767V108.059H267.825V123.826H267.706ZM318.089 104.266H306.945C306.353 99.7611 303.863 96.7974 299.121 96.7974C295.683 96.7974 293.194 98.457 293.194 101.895C293.194 105.57 295.683 107.585 303.507 109.363C314.295 111.853 318.919 116.95 318.919 124.656C318.919 134.14 310.146 139.237 300.307 139.237C288.333 139.237 280.509 134.14 279.561 123.589H290.704C291.653 128.568 295.565 131.057 300.07 131.057C304.1 131.057 307.301 128.924 307.301 125.604C307.301 122.166 305.049 119.914 298.41 118.373C287.978 115.765 281.576 112.327 281.576 102.962C281.576 93.8337 289.993 88.4991 299.477 88.4991C311.687 88.6176 317.022 95.3748 318.089 104.266ZM361.951 119.44C361.951 131.176 354.483 139.237 342.154 139.237C329.706 139.237 322.356 131.057 322.356 119.44C322.356 107.704 329.706 99.6425 342.154 99.6425C354.601 99.7611 361.951 107.822 361.951 119.44ZM350.571 119.44C350.571 111.616 347.37 107.348 342.154 107.348C336.819 107.348 333.618 111.616 333.618 119.44C333.618 127.264 336.819 131.65 342.154 131.65C347.37 131.769 350.571 127.383 350.571 119.44ZM403.917 138.407H392.892V132.006L389.691 136.985C387.202 138.645 384.475 139.356 380.919 139.356C373.095 139.356 368.471 134.97 367.641 129.872C367.404 127.975 367.286 125.96 367.286 122.878V100.709H378.311V120.388C378.311 121.574 378.429 123.589 378.548 125.604C379.022 129.398 381.037 131.65 385.305 131.65C389.81 131.65 392.773 127.738 392.773 120.862V100.709H403.798V138.407H403.917ZM435.925 99.9981V109.008C427.152 108.415 423.477 111.971 423.477 122.641V138.407H412.334V100.709H423.477V107.941L426.322 102.725C428.219 100.709 430.946 99.7611 433.198 99.7611C434.265 99.7611 435.095 99.8796 435.925 99.9981ZM474.689 114.579H463.902C463.072 109.363 460.464 107.348 456.789 107.348C452.166 107.348 449.202 111.142 449.202 119.203C449.202 127.975 452.284 131.769 456.789 131.769C460.227 131.769 462.835 129.398 463.665 125.012H474.571C473.03 134.495 465.917 139.356 456.078 139.356C445.645 139.356 437.703 132.599 437.703 119.914C437.703 106.992 446.357 99.7611 457.026 99.7611C467.695 99.7611 474.215 106.163 474.689 114.579ZM515.825 122.404H489.389C489.982 129.635 493.183 131.769 497.332 131.769C501.244 131.769 503.852 129.635 504.445 126.079H515.351C513.336 134.732 506.223 139.356 497.095 139.356C486.544 139.356 478.246 132.954 478.246 119.677C478.246 108.415 485.833 99.7611 497.688 99.7611C509.661 99.7611 515.944 108.889 515.944 118.847C516.062 119.796 515.944 121.1 515.825 122.404ZM489.745 115.409H504.563C503.971 110.075 501.481 107.348 497.332 107.348C493.42 107.348 490.575 109.838 489.745 115.409ZM71.9849 112.327C71.8663 111.971 71.5107 111.616 71.0365 111.616H44.3634C44.0078 111.616 43.7707 111.497 43.5336 111.26C43.2965 111.023 43.2965 110.667 43.2965 110.43L43.7707 108.296C43.8892 107.822 44.2449 107.467 44.719 107.467H54.677C55.6254 107.467 56.3367 106.874 56.5738 105.926L60.7229 85.2983C60.8414 84.8241 60.6044 84.4685 60.2487 84.2314C59.8931 83.9943 59.4189 84.1128 59.0632 84.3499L25.7515 114.105C25.3959 114.342 25.2773 114.817 25.5144 115.172C25.6329 115.528 25.9886 115.883 26.4628 115.883H53.1359C53.4915 115.883 53.7286 116.002 53.9657 116.239C54.2028 116.476 54.2028 116.832 54.2028 117.069L53.7286 119.203C53.6101 119.677 53.2544 120.033 52.7802 120.033H42.9408C41.9925 120.033 41.2812 120.625 41.0441 121.574L36.7764 142.201C36.6578 142.675 36.8949 143.031 37.2506 143.268C37.6062 143.505 38.0804 143.386 38.436 143.149L71.7478 113.394C71.9849 113.157 72.1034 112.683 71.9849 112.327Z" fill="#F15025"/>
<path d="M72.8147 150.499H24.6845C17.6903 150.499 12 144.809 12 137.815V89.6845C12 82.6903 17.6903 77 24.6845 77H72.8147C79.809 77 85.4992 82.6903 85.4992 89.6845V137.815C85.4992 144.809 79.809 150.499 72.8147 150.499ZM24.6845 79.608C19.1128 79.608 14.608 84.1128 14.608 89.6845V137.815C14.608 143.386 19.1128 148.01 24.8031 148.01H72.9332C78.505 148.01 83.1283 143.505 83.1283 137.815V89.6845C83.1283 84.1128 78.6235 79.4895 72.9332 79.4895H24.6845V79.608Z" fill="#F15025"/>
</g>
<defs>
<clipPath id="clip0_1_7">
<rect width="504.062" height="76.7" fill="white" transform="translate(12 77)"/>
</clipPath>
</defs>
</svg>
